<svg width="52" height="18" viewBox="0 0 52 18" fill="none" xmlns="http://www.w3.org/2000/svg"><path d="M4.457 4.438h1.816l-.908-2.301-.908 2.301z" fill="#2FABF7"/><path d="M26.99 2.466c-.165-.082-.412-.082-.66-.082h-1.65v1.315h1.65c.248 0 .495 0 .66-.082.165-.083.248-.33.248-.576.083-.329-.083-.493-.248-.575z" fill="#228FE0"/><path d="M44.654 0v.986L44.159 0h-3.88v.986L39.784 0h-5.282c-.908 0-1.651.164-2.312.493V0h-3.714v.493C28.064.164 27.568 0 26.908 0H13.619l-.908 2.055L11.803 0h-4.21v.986L7.099 0H3.55L1.9 3.863 0 8.137h4.21l.495-1.315H5.86l.496 1.315h4.787v-.986l.413.986h2.393l.413-.986v.986h11.473V6H26c.165 0 .165 0 .165.247v1.808h5.943v-.493c.495.246 1.238.493 2.229.493h2.476l.495-1.315h1.156l.495 1.315h4.787V6.822l.743 1.233h3.88V0h-3.715zM16.756 6.904h-1.404v-4.52l-1.98 4.52h-1.239l-1.98-4.52v4.52H7.345l-.578-1.233H3.962l-.495 1.315H1.898l2.477-5.835h2.063L8.75 6.658V1.15h2.229l1.816 3.945 1.65-3.945h2.312v5.753zm5.612-4.52H19.15v1.068h3.137v1.15H19.15v1.151h3.22v1.233h-4.623V1.151h4.622v1.233zm6.19 2.383c.166.329.248.575.248 1.069v1.15h-1.403v-.74c0-.328 0-.821-.247-1.15-.248-.247-.496-.247-.99-.247h-1.487v2.137h-1.403V1.151h3.137c.743 0 1.238 0 1.65.246.413.247.66.658.66 1.315 0 .904-.577 1.398-.99 1.562.413.082.66.329.826.493zm2.477 2.137h-1.403V1.068h1.403v5.836zm16.26 0h-1.98l-2.642-4.356v4.356h-2.806l-.496-1.233h-2.889l-.495 1.315H34.42c-.66 0-1.486-.164-1.98-.657-.496-.493-.744-1.15-.744-2.22 0-.821.165-1.643.743-2.3.413-.494 1.156-.658 2.064-.658h1.32v1.233h-1.32c-.496 0-.743.082-1.073.328-.248.247-.413.74-.413 1.315 0 .658.082 1.069.413 1.398.247.246.577.328.99.328h.578l1.898-4.52h2.064l2.31 5.507V1.233h2.064l2.394 4.027V1.233h1.403v5.671h.165z" fill="#0571C1"/><path d="M36.978 4.438h1.898l-.908-2.301-.99 2.301zM22.946 16.274v-4.685L20.8 13.89l2.146 2.384z" fill="#228FE0"/><path d="M14.114 12.164v1.069h3.054v1.15h-3.054v1.233h3.384l1.569-1.726-1.486-1.726h-3.467z" fill="#2FABF7"/><path d="M26.083 12.164h-1.734v1.48h1.816c.495 0 .825-.247.825-.74-.082-.493-.412-.74-.907-.74z" fill="#228FE0"/><path d="M51.587 13.562v-3.7h-3.466c-.743 0-1.321.165-1.734.494v-.493H42.59c-.577 0-1.32.164-1.65.493v-.493h-6.686v.493c-.495-.41-1.403-.493-1.816-.493h-4.457v.493c-.413-.41-1.403-.493-1.898-.493H21.13l-1.155 1.233-1.073-1.233h-7.429v8.055h7.263l1.156-1.233 1.073 1.233h4.457v-1.89H26c.578 0 1.32 0 1.898-.247V18h3.715v-2.137h.165c.247 0 .247 0 .247.246V18h11.226c.743 0 1.486-.163 1.898-.492V18h3.55c.742 0 1.485-.082 1.98-.411.826-.493 1.321-1.397 1.321-2.466 0-.575-.165-1.15-.413-1.561zM26 14.877h-1.65v1.972h-2.642l-1.65-1.89-1.734 1.89h-5.448v-5.835h5.53l1.651 1.89 1.734-1.89h4.374c1.073 0 2.311.328 2.311 1.89-.082 1.644-1.238 1.973-2.476 1.973zm8.254-.33c.165.247.248.576.248 1.07v1.15h-1.404v-.74c0-.328 0-.904-.247-1.15-.165-.247-.495-.247-.99-.247h-1.486v2.137H28.97v-5.836h3.137c.66 0 1.238 0 1.65.247.413.247.744.658.744 1.315 0 .904-.578 1.397-.99 1.562.412.164.66.328.742.493zm5.695-2.383H36.73v1.069h3.137v1.15H36.73v1.151h3.22v1.233h-4.623v-5.836h4.622v1.233zm3.467 4.603h-2.641v-1.233h2.64c.248 0 .414 0 .579-.164a.626.626 0 0 0 .165-.411.626.626 0 0 0-.165-.411c-.083-.082-.248-.165-.496-.165-1.32-.082-2.888 0-2.888-1.808 0-.822.495-1.726 1.98-1.726h2.724v1.397h-2.559c-.247 0-.412 0-.577.083-.165.082-.165.246-.165.41 0 .247.165.33.33.412.165.082.33.082.495.082h.743c.743 0 1.238.164 1.568.493.248.247.413.657.413 1.233 0 1.233-.743 1.808-2.146 1.808zm7.098-.575c-.33.328-.908.575-1.733.575H46.14v-1.233h2.64c.249 0 .414 0 .579-.164a.626.626 0 0 0 .165-.411.626.626 0 0 0-.165-.411c-.083-.082-.248-.165-.495-.165-1.321-.082-2.89 0-2.89-1.808 0-.822.496-1.726 1.982-1.726h2.723v1.397h-2.476c-.248 0-.413 0-.578.083-.165.082-.165.246-.165.41 0 .247.083.33.33.412.166.082.33.082.496.082h.743c.742 0 1.238.164 1.568.493.082 0 .082.082.082.082.248.329.33.74.33 1.15 0 .494-.165.905-.495 1.234z" fill="#0571C1"/><path d="M32.768 12.329c-.165-.082-.412-.082-.66-.082h-1.65v1.315h1.65c.248 0 .495 0 .66-.083.165-.082.248-.328.248-.575.082-.329-.083-.493-.248-.575zM26.99 2.466c-.165-.082-.412-.082-.66-.082h-1.65v1.315h1.65c.248 0 .495 0 .66-.082.166-.083.248-.33.248-.576.083-.329-.082-.493-.247-.575zm9.988 1.972h1.898l-.908-2.301-.99 2.301zM22.946 16.274v-4.685L20.8 13.89l2.146 2.384zm3.137-4.11h-1.734v1.48h1.816c.495 0 .825-.247.825-.74-.082-.493-.412-.74-.907-.74z" fill="#228FE0"/><path d="M32.768 12.329c-.165-.082-.412-.082-.66-.082h-1.65v1.315h1.65c.248 0 .495 0 .66-.083.165-.082.248-.328.248-.575.082-.329-.083-.493-.248-.575z" fill="#228FE0"/><path d="M25.505 16.603l-1.156-1.233v1.397h-2.724l-1.65-1.89-1.816 1.89H12.71v-5.753h5.53l1.734 1.89.825-.986-2.064-2.055h-7.263v8.055h7.263l1.239-1.233 1.073 1.233h4.457v-1.315zM16.92 8.055l-1.072-1.15h-.496V6.41l-1.238-1.233-.825 1.726h-1.156l-1.98-4.52v4.52H7.345L6.767 5.67H3.962l-.578 1.233H1.898L4.375 1.15h2.063L8.75 6.658V1.15h1.238L8.832 0H7.594v.986L7.18 0H3.549L1.9 3.863 0 8.055h4.292l.495-1.233h1.156l.578 1.233h4.622v-.987l.413.987h2.393l.413-.987v.987h2.559z" fill="#2FABF7"/><path d="M13.124 4.274l-1.32-1.315.99 2.137.33-.822z" fill="#2FABF7"/><path d="M50.68 17.507a3.005 3.005 0 0 0 1.32-2.22l-1.155-1.15c.082.247.165.493.165.822 0 .493-.165.904-.496 1.233-.33.329-.908.575-1.733.575H46.14v-1.233h2.641c.248 0 .413 0 .578-.164a.627.627 0 0 0 .165-.41.627.627 0 0 0-.165-.412c-.083-.082-.248-.164-.495-.164-1.321-.082-2.89 0-2.89-1.809 0-.821.496-1.561 1.734-1.726l-.908-.904c-.165.083-.248.165-.33.165v-.493h-3.797c-.578 0-1.32.164-1.65.493v-.493h-6.769v.493c-.495-.411-1.403-.493-1.816-.493h-4.457v.493c-.413-.411-1.403-.493-1.898-.493H21.13l-1.155 1.232-1.073-1.232h-.908l2.476 2.465 1.238-1.315h4.375c1.073 0 2.31.329 2.31 1.89 0 1.645-1.155 1.973-2.393 1.973h-1.65v1.233l1.237 1.233v-1.233H26c.578 0 1.32 0 1.898-.246v2.219h3.715v-2.137h.165c.247 0 .247 0 .247.246v1.89h11.226c.743 0 1.486-.164 1.898-.492v.493h3.55c.66.082 1.403 0 1.98-.329zm-16.426-2.959c.165.247.248.575.248 1.069v1.15h-1.403v-.74c0-.328 0-.904-.248-1.15-.165-.247-.495-.247-.99-.247h-1.486v2.137h-1.403v-5.835h3.136c.66 0 1.238 0 1.65.246.414.247.744.658.744 1.315 0 .904-.578 1.398-.99 1.562.412.164.66.329.742.493zm5.695-2.383H36.73v1.068h3.137v1.15H36.73v1.151h3.22v1.233h-4.623v-5.835h4.622v1.233zm3.467 4.602h-2.641v-1.233h2.64c.249 0 .414 0 .579-.164a.627.627 0 0 0 .165-.41.627.627 0 0 0-.165-.412c-.083-.082-.248-.164-.495-.164-1.321-.082-2.89 0-2.89-1.809 0-.821.496-1.726 1.982-1.726h2.723v1.398h-2.558c-.248 0-.413 0-.578.082-.165.082-.165.246-.165.41 0 .247.165.33.33.412.165.082.33.082.495.082h.743c.743 0 1.238.164 1.568.493.248.247.413.658.413 1.233 0 1.233-.743 1.808-2.146 1.808z" fill="#228FE0"/><path d="M47.378 12.74c0 .246.082.329.33.41.165.083.33.083.495.083h.743c.495 0 .825.082 1.156.247l-1.239-1.233h-.742c-.248 0-.413 0-.578.082a.626.626 0 0 0-.165.41zm-2.889-4.932l.165.247h.083l-.248-.247zm-4.539-4.52l1.402 3.37V4.685L39.95 3.288z" fill="#228FE0"/><path d="M25.835 6H26c.165 0 .165 0 .165.247v1.808h5.943v-.493c.495.246 1.238.493 2.228.493h2.477l.495-1.315h1.155l.496 1.315h4.787v-.822l-1.156-1.15v.903h-2.806l-.413-1.315h-2.889l-.495 1.315H34.42c-.66 0-1.486-.164-1.98-.657-.496-.493-.744-1.151-.744-2.22 0-.821.165-1.643.743-2.3.413-.494 1.156-.658 2.064-.658h1.32v1.233h-1.32c-.496 0-.743.082-1.074.328-.247.247-.412.74-.412 1.315 0 .658.082 1.069.412 1.398.248.246.578.328.991.328h.578l1.898-4.52h.826L36.565.083H34.42c-.908 0-1.65.164-2.311.492V.082h-3.632v.493c-.413-.328-.908-.493-1.568-.493h-13.29l-.908 2.055-.908-2.055H8.171l1.156 1.15h1.65l1.404 3.042.495.493 1.486-3.616h2.311v5.835H15.27v-4.52l-1.403 3.287 2.393 2.384h9.492L25.835 6zm3.797-4.85h1.403v5.836h-1.403V1.151zm-7.264 1.234H19.15v1.068h3.137v1.15H19.15v1.151h3.22v1.233h-4.623V1.151h4.622v1.233zm2.311 4.52h-1.403V1.068h3.137c.742 0 1.238 0 1.65.247.413.247.66.658.66 1.315 0 .904-.577 1.397-.99 1.562.33.082.578.329.66.493.166.329.248.575.248 1.068v1.151h-1.403v-.74c0-.328 0-.822-.248-1.15-.082-.165-.33-.165-.825-.165H24.68v2.055z" fill="#228FE0"/></svg>