<svg width="40" height="40" viewBox="0 0 40 40" fill="none" xmlns="http://www.w3.org/2000/svg"><circle cx="20" cy="20" r="20" fill="#2E2E2E"/><path clip-rule="evenodd" d="M28.473 24.802c.704.586.704 1.527-.008 2.11l-1.73 1.414c-.708.58-1.994.848-2.856.553 0 0-3.484-.657-7.797-4.968-4.313-4.31-4.97-7.793-4.97-7.793-.274-.869-.03-2.143.553-2.856l1.415-1.728c.58-.708 1.525-.713 2.112-.009l2.135 2.562c.39.468.435 1.256.094 1.767l-.949 1.423s.012 2.353 1.953 4.293c1.94 1.94 4.294 1.951 4.294 1.951l1.424-.949c.508-.338 1.302-.293 1.768.095l2.562 2.134z" stroke="#fff" stroke-width="2" stroke-linecap="round" stroke-linejoin="round"/></svg>