<svg width="40" height="40" viewBox="0 0 40 40" fill="none" xmlns="http://www.w3.org/2000/svg"><circle cx="20" cy="20" r="20" fill="#2E2E2E"/><path clip-rule="evenodd" d="M11 17a3 3 0 0 1 3-3h12a3 3 0 0 1 3 3v7a3 3 0 0 1-3 3H14a3 3 0 0 1-3-3v-7z" stroke="#fff" stroke-width="2" stroke-linecap="round" stroke-linejoin="round"/><path clip-rule="evenodd" d="M20 22.821l-7.58-4.692a3 3 0 0 1-1.42-2.55v-.188c0-.768.604-1.391 1.347-1.391h15.306c.742 0 1.347.623 1.347 1.391v.187a3 3 0 0 1-1.42 2.55L20 22.822z" stroke="#fff" stroke-width="2" stroke-linecap="round" stroke-linejoin="round"/></svg>