<svg width="46" height="46" viewBox="0 0 46 46" fill="none" xmlns="http://www.w3.org/2000/svg"><path d="M33.484 0H11.678C5.243 0 0 5.34 0 11.895v22.21C0 40.66 5.243 46 11.678 46H24.07V28.219h-5.898v-7.282h5.898v-6.069c0-4.43 3.515-8.01 7.865-8.01h6.136v6.493h-4.409c-1.37 0-2.502 1.153-2.502 2.549v5.037h6.792L37 28.158h-5.84V45.94h2.324c3.634 0 6.851-1.699 8.996-4.308a11.968 11.968 0 0 0 2.681-7.586v-22.15C45.161 5.34 39.918 0 33.484 0z" fill="#2554A2"/><path d="M36.999 28.22l.953-7.223H31.16v-5.036c0-1.396 1.132-2.55 2.503-2.55h4.409V6.859h-6.137c-4.35 0-7.865 3.58-7.865 8.01v6.069h-5.898v7.221h5.898V45.94h7.09V28.22H37z" fill="#fff"/></svg>