<svg width="46" height="46" viewBox="0 0 46 46" fill="none" xmlns="http://www.w3.org/2000/svg"><path d="M11.678 0h21.806C39.918 0 45.16 5.34 45.16 11.895v22.21C45.161 40.66 39.918 46 33.484 46H11.678C5.243 46 0 40.66 0 34.105v-22.21C0 5.34 5.243 0 11.678 0z" fill="url(#a)"/><path d="M29.552 6.13H15.55c-5.302 0-9.592 4.369-9.592 9.77v14.261c0 5.401 4.29 9.77 9.592 9.77h14.002c5.302 0 9.592-4.369 9.592-9.77V15.84c0-5.34-4.29-9.71-9.592-9.71zm6.553 24.213c0 3.58-2.86 6.494-6.375 6.494H15.372c-3.516 0-6.375-2.913-6.375-6.494V15.78c0-3.58 2.86-6.494 6.375-6.494H29.73c3.515 0 6.375 2.913 6.375 6.494v14.564z" fill="#fff"/><path d="M22.58 14.322c-4.766 0-8.579 3.945-8.579 8.739 0 4.794 3.873 8.739 8.58 8.739 4.766 0 8.58-3.945 8.58-8.74 0-4.793-3.874-8.738-8.58-8.738zm0 14.443c-3.097 0-5.6-2.549-5.6-5.704 0-3.156 2.503-5.705 5.6-5.705 3.099 0 5.601 2.55 5.601 5.705-.06 3.155-2.562 5.704-5.6 5.704zm8.878-12.743c1.119 0 2.026-.924 2.026-2.064 0-1.14-.907-2.063-2.026-2.063-1.119 0-2.026.924-2.026 2.063 0 1.14.907 2.064 2.026 2.064z" fill="#fff"/><defs><linearGradient id="a" x2="1" gradientUnits="userSpaceOnUse" gradientTransform="matrix(38.30758 -39.019 38.30758 39.019 -15.733 23.003)"><stop stop-color="#EEB744"/><stop offset=".316" stop-color="#E96376"/><stop offset=".512" stop-color="#E63393"/><stop offset=".583" stop-color="#D4369D"/><stop offset=".725" stop-color="#A43DB8"/><stop offset=".924" stop-color="#5848E2"/><stop offset=".983" stop-color="#404BEF"/></linearGradient></defs></svg>