<svg width="50" height="30" viewBox="0 0 50 30" fill="none" xmlns="http://www.w3.org/2000/svg"><path d="M25 26.111c3.016-2.698 4.92-6.667 4.92-11.111 0-4.444-1.904-8.333-4.92-11.111C22.381 1.508 18.81 0 15 0 6.746 0 0 6.746 0 15s6.746 14.92 15 14.92c3.81.08 7.381-1.428 10-3.809z" fill="#07A9E2"/><path d="M0 15c0 8.254 6.746 14.92 15 14.92 3.889 0 7.381-1.428 10-3.888 3.016-2.699 4.92-6.667 4.92-11.111 0-4.445-1.904-8.254-4.92-11.032C22.381 1.508 18.81 0 15 0" fill="#009DDD"/><path d="M25 3.889C22.381 1.508 18.81 0 15 0h-.714C9.603 3.413 6.587 8.889 6.587 15c0 6.111 3.016 11.587 7.62 14.92h.714c3.888 0 7.38-1.428 10-3.888 3.015-2.699 4.92-6.667 4.92-11.111 0-4.445-1.825-8.254-4.841-11.032z" fill="#0284CC"/><path d="M35.08 0C31.19 0 27.697 1.429 25 3.889c-.555.476-1.032 1.032-1.508 1.587h3.016c.397.476.794 1.032 1.111 1.587h-5.317c-.318.556-.635 1.032-.873 1.588h7.063c.238.555.476 1.032.635 1.587h-8.254c-.159.556-.317 1.032-.476 1.587h9.206c.238 1.032.318 2.064.318 3.175 0 1.667-.238 3.254-.794 4.762h-8.254c.159.555.397 1.032.635 1.587h7.063a10.165 10.165 0 0 1-.873 1.587h-5.317c.317.556.714 1.112 1.111 1.588h3.016c-.476.555-.952 1.11-1.508 1.587C27.698 28.492 31.19 30 35.08 30 43.332 30 50 23.333 50 15.08 50 6.745 43.333 0 35.08 0z" fill="#FF2957"/><path d="M35.08 0C31.19 0 27.697 1.429 25 3.889c-.555.476-1.032 1.032-1.508 1.587h3.016c.397.476.794 1.032 1.111 1.587h-5.317c-.318.556-.635 1.032-.873 1.588h7.063c.238.555.476 1.032.635 1.587h-8.254c-.159.556-.317 1.032-.476 1.587h9.206c.238 1.032.318 2.064.318 3.175 0 1.667-.238 3.254-.794 4.762h-8.254c.159.555.397 1.032.635 1.587h7.063a10.165 10.165 0 0 1-.873 1.587h-5.317c.317.556.714 1.112 1.111 1.588h3.016c-.476.555-.952 1.11-1.508 1.587C27.698 28.492 31.19 30 35.08 30 43.332 30 50 23.333 50 15.08" fill="#ED1C2E"/><path d="M25 26.111c3.016-2.698 4.92-6.666 4.92-11.111 0-4.444-1.904-8.333-4.92-11.111V26.11z" fill="#0466B5"/><path d="M44.841 18.254c0-.238.238-.476.476-.476.239 0 .477.238.477.476s-.238.476-.477.476c-.238 0-.476-.238-.476-.476zm.476.397c.239 0 .318-.159.318-.397 0-.238-.159-.317-.318-.317-.238 0-.396.158-.396.317s.238.397.396.397zm0-.238h-.079v-.397h.239l.079.08c0 .079 0 .079-.08.079l.08.158h-.08l-.08-.158h-.079v.238zm0-.238h.08v-.08h-.08v.08z" fill="#fff"/><path d="M25 3.889c-.555.476-1.032 1.032-1.508 1.587h3.016a11.34 11.34 0 0 1 1.111 1.588h-5.317c-.318.555-.635 1.031-.873 1.587h7.063c.238.555.476 1.032.635 1.587h-8.254c-.159.556-.317 1.032-.476 1.587h9.206c.238 1.032.318 2.064.318 3.175 0 1.667-.238 3.254-.794 4.762h-8.254c.159.556.397 1.032.635 1.587h7.063a10.165 10.165 0 0 1-.873 1.588h-5.317c.317.555.714 1.11 1.111 1.587h3.016c-.476.555-.952 1.11-1.508 1.587C27.698 28.492 31.19 30 35.08 30h.714c4.603-3.333 7.619-8.81 7.619-14.92 0-6.112-3.016-11.588-7.62-14.921h-.714C31.191 0 27.7 1.508 25 3.889z" fill="#D1094B"/><path d="M13.095 18.73H11.19l1.112-5.793-2.54 5.793H8.095l-.317-5.793-1.111 5.793H5l1.429-7.619h2.936l.159 4.762 2.063-4.762h3.016l-1.508 7.62z" fill="#fff"/><path d="M11.27 15.397l1.11-2.46-.872 4.603c.08.397.159.873.317 1.27h1.27l1.429-7.62h-2.778c-.318 1.191-.556 2.54-.556 3.89.08.079.08.158.08.317zm22.619 3.253c-.556.16-.873.239-1.35.239-.952 0-1.428-.477-1.428-1.35 0-.158 0-.317.08-.555l.079-.635.08-.476.872-4.683h1.826l-.238 1.429h.952l-.238 1.428h-.953l-.476 2.54c0 .08-.08.238-.08.238 0 .318.239.476.636.476.238 0 .397 0 .476-.08l-.238 1.43zm5.476-6.031c-.159-.08-.159-.08-.238-.08-.08 0-.159 0-.159-.079h-.238c-.635 0-1.032.238-1.587 1.032l.158-.953h-1.666l-1.111 6.19h1.904c.635-3.809.953-4.444 1.826-4.444h.238l.238.08.635-1.746zm-12.857 1.904c0 .794.476 1.35 1.428 1.667.794.318.873.397.873.714 0 .397-.317.556-1.11.556-.556 0-1.112-.08-1.667-.238l-.238 1.428h.079l.317.08h.477c.476.08.793.08 1.031.08 1.984 0 2.937-.636 2.937-2.064 0-.873-.397-1.35-1.35-1.746-.793-.318-.872-.397-.872-.635 0-.318.317-.476.952-.476.317 0 .873 0 1.35.079l.237-1.429c-.476-.079-1.19-.079-1.666-.079-2.064 0-2.778.952-2.778 2.063zm-7.381 4.207h-1.508v-.635c-.476.476-1.111.714-1.984.714-1.032 0-1.667-.714-1.667-1.666 0-1.508 1.19-2.381 3.254-2.381h.794c.08-.238.08-.318.08-.397 0-.397-.318-.556-1.191-.556-.556 0-1.112.08-1.508.159l-.238.08h-.16l.239-1.35c.952-.238 1.508-.317 2.222-.317 1.587 0 2.46.635 2.46 1.825 0 .318 0 .556-.158 1.27l-.397 2.222-.08.397-.079.317v.239l-.08.079zm-1.35-2.778h-.396c-1.032 0-1.587.318-1.587.953 0 .396.238.634.634.634.794 0 1.35-.634 1.35-1.587zm7.461 2.619a7.827 7.827 0 0 1-1.905.238c-2.063 0-3.174-.952-3.174-2.778 0-2.142 1.349-3.65 3.254-3.65 1.508 0 2.46.873 2.46 2.222 0 .476-.08.873-.238 1.508h-3.73v.238c0 .714.555 1.111 1.587 1.111.714 0 1.27-.08 1.905-.397l-.159 1.508zm-.952-3.65v-.318c0-.476-.318-.794-.873-.794-.556 0-1.032.397-1.19 1.111h2.063z" fill="#DCE5E5"/><path d="M45.159 15.952c-.318 2.064-1.746 2.937-3.651 2.937-2.064 0-2.937-1.27-2.937-2.857 0-2.143 1.429-3.651 3.651-3.651 1.905 0 2.937 1.27 2.937 2.778v.793zm-1.984-.793c0-.635-.239-1.19-1.032-1.19-.953 0-1.508 1.11-1.508 2.142 0 .794.397 1.35 1.032 1.35.396 0 1.27-.556 1.428-1.509.08-.317.08-.555.08-.793z" fill="#fff"/><path d="M38.65 16.746c.08-.555.16-1.19.16-1.746v-.159c-.08.397-.16.794-.16 1.27-.079.159-.079.397 0 .635z" fill="#fff"/></svg>