<svg width="50" height="30" viewBox="0 0 50 30" fill="none" xmlns="http://www.w3.org/2000/svg"><path d="M50 15c0 8.254-6.667 15-15 15-8.254 0-15-6.746-15-15S26.667 0 34.92 0C43.334 0 50 6.746 50 15z" fill="#FFB600"/><path d="M35 0c8.254 0 15 6.746 15 15s-6.667 15-15 15c-8.254 0-15-6.746-15-15" fill="#F7981D"/><path d="M35 0c8.254 0 15 6.746 15 15s-6.667 15-15 15" fill="#FF8500"/><path d="M14.841 0C6.667.08 0 6.746 0 15s6.667 15 15 15c3.889 0 7.381-1.508 10.08-3.889.555-.476 1.031-1.032 1.507-1.587h-3.095a18.277 18.277 0 0 1-1.111-1.508h5.317c.318-.476.635-1.032.873-1.587h-7.063a9.458 9.458 0 0 1-.635-1.588h8.254c.476-1.508.794-3.095.794-4.762 0-1.11-.16-2.143-.318-3.174h-9.206c.08-.556.238-1.032.397-1.587h8.254a9.455 9.455 0 0 0-.635-1.588h-6.984c.238-.555.555-1.032.873-1.587h5.317a7.544 7.544 0 0 0-1.19-1.587h-2.937C23.968 5 24.444 4.524 25 4.048c-2.619-2.46-6.19-3.89-10.08-3.89 0-.158 0-.158-.079-.158z" fill="#FF5050"/><path d="M0 15c0 8.254 6.667 15 15 15 3.889 0 7.381-1.508 10.08-3.889.555-.476 1.031-1.032 1.507-1.587h-3.095a18.279 18.279 0 0 1-1.111-1.508h5.317c.318-.476.635-1.032.873-1.588h-7.063a9.455 9.455 0 0 1-.635-1.587h8.254c.476-1.508.794-3.095.794-4.762 0-1.11-.16-2.143-.318-3.174h-9.206c.08-.556.238-1.032.397-1.588h8.254a9.457 9.457 0 0 0-.635-1.587h-6.984c.238-.555.555-1.032.873-1.587h5.317a7.544 7.544 0 0 0-1.19-1.587h-2.937C23.968 5 24.444 4.524 25 4.048c-2.619-2.46-6.19-3.89-10.08-3.89h-.079" fill="#E52836"/><path d="M15 30c3.889 0 7.381-1.508 10.08-3.889.555-.476 1.031-1.032 1.507-1.587h-3.095a18.311 18.311 0 0 1-1.111-1.508h5.317c.318-.476.635-1.032.873-1.588h-7.063a9.458 9.458 0 0 1-.635-1.587h8.254c.476-1.508.794-3.095.794-4.762 0-1.11-.16-2.143-.318-3.174h-9.206c.08-.556.238-1.032.397-1.588h8.254a9.457 9.457 0 0 0-.635-1.587h-6.984c.238-.555.555-1.032.873-1.587h5.317a7.548 7.548 0 0 0-1.19-1.587h-2.937C23.968 5 24.444 4.524 25 4.048c-2.619-2.46-6.19-3.89-10.08-3.89h-.079" fill="#CB2026"/><path d="M20.317 18.81l.239-1.35c-.08 0-.239.08-.397.08-.556 0-.635-.318-.556-.477l.476-2.777h.873l.238-1.508h-.793l.159-.953h-1.588s-.952 5.239-.952 5.873c0 .953.555 1.35 1.27 1.35.476 0 .873-.16 1.031-.238zm.556-2.54c0 2.222 1.508 2.778 2.778 2.778 1.19 0 1.666-.238 1.666-.238l.318-1.508s-.873.396-1.667.396c-1.746 0-1.428-1.27-1.428-1.27h3.254s.238-1.031.238-1.428c0-1.032-.556-2.302-2.302-2.302-1.667-.158-2.857 1.588-2.857 3.572zm2.778-2.302c.873 0 .714 1.032.714 1.111H22.62c0-.079.159-1.11 1.032-1.11zM33.73 18.81l.318-1.747s-.794.397-1.35.397c-1.11 0-1.587-.873-1.587-1.825 0-1.905.953-2.937 2.064-2.937.793 0 1.428.477 1.428.477l.238-1.667s-.952-.397-1.825-.397c-1.825 0-3.65 1.587-3.65 4.603 0 1.984.951 3.334 2.856 3.334.635 0 1.508-.238 1.508-.238zm-22.143-6.27c-1.11 0-1.904.317-1.904.317l-.239 1.35s.715-.318 1.746-.318c.556 0 1.032.08 1.032.555 0 .318-.08.397-.08.397h-.713c-1.35 0-2.858.556-2.858 2.381 0 1.429.953 1.746 1.508 1.746 1.111 0 1.588-.714 1.667-.714l-.08.635h1.43l.634-4.365c0-1.905-1.587-1.984-2.143-1.984zm.318 3.571c0 .238-.159 1.508-1.111 1.508-.477 0-.635-.397-.635-.635 0-.397.238-.952 1.428-.952.238.08.318.08.318.08zm3.333 2.857c.397 0 2.381.08 2.381-2.063 0-1.984-1.905-1.588-1.905-2.381 0-.397.318-.556.873-.556.238 0 1.111.08 1.111.08l.239-1.429s-.556-.159-1.508-.159c-1.19 0-2.381.476-2.381 2.064 0 1.825 1.984 1.666 1.984 2.38 0 .477-.556.556-.953.556-.714 0-1.428-.238-1.428-.238l-.238 1.429c.08.159.476.317 1.825.317zm31.667-7.698l-.318 2.143s-.635-.794-1.508-.794c-1.428 0-2.698 1.746-2.698 3.81 0 1.27.635 2.619 1.984 2.619.953 0 1.508-.635 1.508-.635l-.08.555h1.588l1.19-7.619-1.666-.08zm-.714 4.206c0 .873-.397 1.984-1.27 1.984-.556 0-.873-.476-.873-1.27 0-1.27.555-2.063 1.27-2.063.555 0 .873.397.873 1.35zM2.937 18.889l.952-5.714.159 5.714h1.11l2.064-5.714-.873 5.714h1.667l1.27-7.62h-2.62L5.08 15.953 5 11.27H2.698l-1.27 7.619h1.509zm24.603 0c.476-2.62.555-4.762 1.666-4.365.16-1.032.397-1.429.556-1.826h-.318c-.714 0-1.27.953-1.27.953l.16-.873h-1.509l-1.031 6.19h1.746v-.08zm9.841-6.349c-1.111 0-1.905.317-1.905.317l-.238 1.35s.714-.318 1.746-.318c.556 0 1.032.08 1.032.555 0 .318-.08.397-.08.397h-.714c-1.349 0-2.857.556-2.857 2.381 0 1.429.952 1.746 1.508 1.746 1.111 0 1.587-.714 1.667-.714l-.08.635h1.429l.635-4.365c.08-1.905-1.587-1.984-2.143-1.984zm.397 3.571c0 .238-.159 1.508-1.111 1.508-.476 0-.635-.397-.635-.635 0-.397.238-.952 1.428-.952.238.08.238.08.318.08zm3.095 2.778c.476-2.62.556-4.762 1.667-4.365.158-1.032.397-1.429.555-1.826h-.317c-.714 0-1.27.953-1.27.953l.159-.873h-1.508l-1.032 6.19h1.746v-.08z" fill="#fff"/><path d="M17.857 17.698c0 .953.556 1.35 1.27 1.35.556 0 1.032-.16 1.19-.238l.239-1.35c-.08 0-.238.08-.397.08-.556 0-.635-.318-.556-.477l.476-2.777h.873l.239-1.508h-.794l.159-.953m1.111 4.445c0 2.222.714 2.778 1.984 2.778 1.19 0 1.666-.238 1.666-.238l.318-1.508s-.873.396-1.667.396c-1.746 0-1.428-1.27-1.428-1.27h3.254s.238-1.031.238-1.428c0-1.032-.556-2.302-2.302-2.302-1.667-.158-2.063 1.588-2.063 3.572zm1.984-2.302c.873 0 1.031 1.032 1.031 1.111H22.62c0-.079.159-1.11 1.032-1.11zM33.73 18.81l.318-1.747s-.794.397-1.35.397c-1.11 0-1.587-.873-1.587-1.825 0-1.905.952-2.937 2.064-2.937.793 0 1.428.477 1.428.477l.238-1.667s-.952-.397-1.825-.397c-1.826 0-2.857 1.587-2.857 4.603 0 1.984.158 3.334 2.063 3.334.635 0 1.508-.238 1.508-.238zM9.444 14.286s.715-.318 1.746-.318c.556 0 1.032.08 1.032.556 0 .317-.08.397-.08.397h-.713c-1.35 0-2.858.555-2.858 2.38 0 1.43.953 1.747 1.508 1.747 1.111 0 1.588-.715 1.667-.715l-.08.635h1.43l.634-4.365c0-1.825-1.587-1.905-2.222-1.905l-2.064 1.588zm3.254 1.825c0 .238-.952 1.508-1.904 1.508-.477 0-.635-.397-.635-.635 0-.397.238-.952 1.428-.952.238.08 1.111.08 1.111.08zm.794 2.699s.476.158 1.825.158c.397 0 2.381.08 2.381-2.063 0-1.984-1.904-1.588-1.904-2.381 0-.397.317-.556.873-.556.238 0 1.11.08 1.11.08l.239-1.429s-.556-.159-1.508-.159c-1.19 0-1.587.476-1.587 2.064 0 1.825 1.19 1.666 1.19 2.38 0 .477-.555.556-.952.556m31.428-4.047s-.635-.794-1.508-.794c-1.428 0-1.904 1.746-1.904 3.81 0 1.27-.16 2.619 1.19 2.619.952 0 1.508-.635 1.508-.635l-.08.555h1.588l1.19-7.619-1.984 2.064zm-.08 2.063c0 .873-.713 1.984-1.586 1.984-.556 0-.873-.476-.873-1.27 0-1.27.555-2.063 1.27-2.063.555 0 1.19.397 1.19 1.35zm-43.57 3.413l.952-5.714.159 5.714h1.11l2.064-5.714-.873 5.714h1.667l1.27-7.62H7.302l-2.223 4.683L5 11.27h-.873l-2.698 7.619h1.508zm22.936 0h1.667c.476-2.62.555-4.762 1.666-4.365.16-1.032.397-1.429.556-1.826h-.318c-.714 0-1.27.953-1.27.953l.16-.873m6.904 1.508s.714-.318 1.746-.318c.556 0 1.032.08 1.032.556 0 .317-.08.397-.08.397h-.714c-1.349 0-2.857.555-2.857 2.38 0 1.43.952 1.747 1.508 1.747 1.111 0 1.587-.715 1.667-.715l-.08.635h1.429l.635-4.365c0-1.825-1.587-1.905-2.222-1.905l-2.064 1.588zm3.254 1.825c0 .238-.952 1.508-1.905 1.508-.476 0-.635-.397-.635-.635 0-.397.238-.952 1.429-.952.317.08 1.111.08 1.111.08zm.714 2.778h1.667c.476-2.62.556-4.762 1.667-4.365.158-1.032.397-1.429.555-1.826h-.317c-.714 0-1.27.953-1.27.953l.159-.873" fill="#DCE5E5"/></svg>