<svg width="65" height="78" viewBox="0 0 65 78" fill="none" xmlns="http://www.w3.org/2000/svg"><path clip-rule="evenodd" d="M41.8 2H22.2l-5.6 7H8.2C5.888 9 4 10.875 4 13.188v26.624A4.192 4.192 0 0 0 8.192 44h47.613A4.194 4.194 0 0 0 60 39.812V13.189A4.198 4.198 0 0 0 55.8 9h-8.4l-5.6-7z" stroke="#75442A" stroke-width="4" stroke-linecap="round" stroke-linejoin="round"/><path clip-rule="evenodd" d="M32 34.2c5.413 0 9.8-4.388 9.8-9.8 0-5.412-4.387-9.8-9.8-9.8-5.412 0-9.8 4.388-9.8 9.8 0 5.412 4.388 9.8 9.8 9.8z" stroke="#75442A" stroke-width="4" stroke-linecap="round" stroke-linejoin="round"/><path d="M1.078 74v-9.128h2.058v3.514h3.15v-3.514h2.072V74H6.286v-3.808h-3.15V74H1.078zm9.434 0v-9.128h5.712v1.736H12.57v1.834h3.108v1.722H12.57v2.1h3.794V74h-5.852zm9.447 0v-7.392h-2.506v-1.736h7.085v1.736h-2.506V74h-2.073zm15.86-4.606c0-.635-.172-1.106-.518-1.414-.336-.317-.797-.5-1.386-.546v3.976c.589-.047 1.05-.233 1.386-.56.346-.327.518-.812.518-1.456zm-5.572 0c0 .644.169 1.13.505 1.456.335.327.797.513 1.386.56v-3.976c-.588.047-1.05.229-1.386.546-.336.308-.505.78-.505 1.414zm1.89 4.774v-1.232c-1.185-.065-2.118-.392-2.8-.98-.68-.597-1.021-1.451-1.021-2.562 0-1.101.34-1.937 1.021-2.506.682-.579 1.615-.905 2.8-.98v-1.204h1.779v1.204c1.194.075 2.132.397 2.814.966.68.57 1.022 1.41 1.022 2.52 0 1.12-.341 1.974-1.023 2.562-.68.579-1.619.905-2.813.98v1.232h-1.778zm11.028 0c-.616 0-1.18-.107-1.694-.322a3.76 3.76 0 0 1-1.302-.952 4.43 4.43 0 0 1-.854-1.498c-.196-.588-.294-1.255-.294-2.002 0-.747.098-1.41.294-1.988.205-.588.49-1.078.854-1.47a3.537 3.537 0 0 1 1.302-.91 4.348 4.348 0 0 1 1.694-.322 4.24 4.24 0 0 1 1.68.322c.513.205.952.509 1.316.91.364.401.644.896.84 1.484.205.579.308 1.237.308 1.974 0 .747-.103 1.414-.308 2.002a4.255 4.255 0 0 1-.84 1.498c-.364.41-.803.728-1.316.952a4.245 4.245 0 0 1-1.68.322zm0-1.778c.625 0 1.12-.266 1.484-.798.364-.541.546-1.274.546-2.198 0-.915-.182-1.629-.546-2.142-.364-.513-.859-.77-1.484-.77s-1.12.257-1.484.77c-.364.513-.546 1.227-.546 2.142 0 .924.182 1.657.546 2.198.364.532.859.798 1.484.798zM50.407 74v-7.392H47.9v-1.736h7.084v1.736h-2.506V74h-2.072zm9.315.168a4.34 4.34 0 0 1-1.694-.322 3.76 3.76 0 0 1-1.302-.952 4.43 4.43 0 0 1-.854-1.498c-.196-.588-.294-1.255-.294-2.002 0-.747.098-1.41.294-1.988.205-.588.49-1.078.854-1.47a3.537 3.537 0 0 1 1.302-.91 4.348 4.348 0 0 1 1.694-.322 4.24 4.24 0 0 1 1.68.322c.513.205.952.509 1.316.91.364.401.644.896.84 1.484.205.579.308 1.237.308 1.974 0 .747-.103 1.414-.308 2.002a4.255 4.255 0 0 1-.84 1.498c-.364.41-.803.728-1.316.952a4.245 4.245 0 0 1-1.68.322zm0-1.778c.625 0 1.12-.266 1.484-.798.364-.541.546-1.274.546-2.198 0-.915-.182-1.629-.546-2.142-.364-.513-.86-.77-1.484-.77-.626 0-1.12.257-1.484.77-.364.513-.546 1.227-.546 2.142 0 .924.182 1.657.546 2.198.364.532.858.798 1.484.798z" fill="#75442A"/></svg>