<svg width="48" height="20" viewBox="0 0 48 20" fill="none" xmlns="http://www.w3.org/2000/svg"><path d="M18.813 12.453h.232c.232 0 .387-.076.465-.226l.696-.982h1.781l-.387.604h2.168l-.31.981h-2.555c-.31.453-.62.604-1.084.604h-1.316l.31-.981zm-.31 1.358h4.645l-.31 1.057h-1.857l-.31 1.057h1.858l-.31 1.056h-1.858l-.464 1.51c-.078.226 0 .377.387.302h1.47l-.309.98h-2.864c-.542 0-.697-.301-.542-.905l.542-1.962h-1.162l.31-1.057h1.161l.31-1.056h-1.084l.387-.982zm7.51-2.566l-.078.604s.852-.68 1.704-.68h2.942l-1.162 4.076c-.077.453-.464.68-1.238.68h-3.33l-.774 2.792c-.077.151 0 .226.155.226h.697l-.232.83h-1.704c-.619 0-.929-.15-.774-.603l2.245-8h1.549v.075zm2.477 1.132h-2.632l-.31 1.057s.465-.302 1.162-.302h1.548l.232-.755zm-.929 2.491c.232 0 .31-.075.31-.226l.155-.604h-2.633l-.232.83h2.4zm-1.78 1.283h1.548v.68h.387c.232 0 .31-.076.31-.227l.155-.453h1.238l-.154.604c-.155.528-.542.755-1.162.83h-.851v1.132c0 .151.154.302.464.302h.774l-.232.906H26.4c-.542 0-.774-.227-.774-.755l.155-3.019z" fill="#009DA5"/><path d="M20.594 13.208l.31-.302h2.554l.31-.981H21.6l.387-.604h-1.78l-.697.905c-.078.151-.233.227-.465.227h-.232l-.077.226c.619.151 1.238.378 1.858.529zm5.341-1.358l.078-.605h-1.549l-.696 2.415c.387 0 .851.076 1.238.076 1.781 0 3.407-.226 5.033-.68l.542-1.81h-2.942c-.852 0-1.704.603-1.704.603zm2.323 1.282H26.71c-.775 0-1.162.302-1.162.302l.31-1.057h2.632l-.232.755z" fill="#02CCCC"/><path d="M32.206 12.453l.388-1.208h1.78l-.077.453s.929-.453 1.548-.453h2.245l-.387 1.208h-.31l-1.703 5.736H36l-.31 1.132h-.387l-.155.528h-1.703l.155-.528h-3.406l.31-1.132h.309l1.703-5.736h-.31zm1.936 0l-.465 1.585s.775-.302 1.471-.378c.155-.528.31-1.207.31-1.207h-1.316zm-.62 2.34l-.464 1.66s.852-.377 1.471-.453l.31-1.207h-1.316zm.31 3.396l.31-1.208h-1.316l-.31 1.208h1.316zm4.336-7.02h1.703l.077.605c0 .15.078.226.31.226h.31l-.31 1.057H39.02c-.464 0-.696-.151-.774-.529l-.077-1.358zm-.465 2.265h5.42l-.31 1.057H41.11l-.31 1.056h1.703l-.31 1.132h-1.935l-.464.68h.929l.232 1.283c0 .15.155.226.31.226h.31l-.31 1.057h-1.007c-.542 0-.852-.151-.852-.529l-.232-1.207-.851 1.283c-.233.377-.542.528-.93.528h-1.625l.31-1.057h.464c.232 0 .387-.075.542-.301l1.316-1.887h-1.703l.31-1.132h1.858l.31-1.057h-1.859l.387-1.132z" fill="#009DA5"/><path d="M34.374 11.32h-1.78l-.31.982c.697-.302 1.393-.604 2.09-.981z" fill="#02CCCC"/><path d="M7.2 5.887c-.232.98-.697 1.736-1.394 2.264-.774.528-1.703.83-2.864.83-1.084 0-1.936-.302-2.4-.83C.155 7.774 0 7.245 0 6.64c0-.226 0-.528.077-.83L1.317 0h1.857L1.935 5.736c0 .15-.077.302-.077.453 0 .302.077.528.232.754.233.302.62.453 1.084.453.542 0 1.084-.15 1.394-.377.387-.302.62-.68.697-1.208L6.503.075h2.013L7.2 5.887z" fill="#FF7F29"/><path d="M7.2 5.887c-.232.98-.697 1.736-1.394 2.264-.774.528-1.703.83-2.864.83-1.084 0-1.936-.302-2.4-.83C.155 7.774 0 7.245 0 6.64c0-.226 0-.528.077-.83L2.787 0h.387L1.935 5.736c0 .15-.077.302-.077.453 0 .302.077.528.232.754.233.302.62.453 1.084.453.542 0 1.084-.15 1.394-.377.387-.302.62-.68.697-1.208L7.975.075h.541L7.2 5.887zm1.78-2.264h1.317l-.155.754.155-.226c.464-.453.929-.68 1.548-.68.542 0 .93.152 1.239.454.232.301.31.754.232 1.283l-.697 3.547h-1.393l.62-3.246c.077-.301.077-.603-.078-.754-.078-.151-.31-.227-.62-.227-.387 0-.619.076-.851.302-.233.227-.387.528-.465.906l-.62 3.019H7.82l1.162-5.132z" fill="#EA2227"/><path d="M24.155 3.623h1.316l-.155.754.155-.226c.464-.453.929-.68 1.548-.68.542 0 .93.152 1.239.454.232.301.31.754.232 1.283l-.697 3.547H26.4l.697-3.246c.077-.301.077-.603-.078-.754-.077-.151-.31-.227-.62-.227-.386 0-.618.076-.85.302-.233.227-.388.528-.465.906l-.62 3.019h-1.393l1.084-5.132z" fill="#A5002F"/><path d="M15.097 3.623h1.47l-1.16 5.207h-1.471l1.16-5.207zm.464-1.887h1.471l-.31 1.283h-1.47l.31-1.283zm2.323 6.717c-.387-.378-.542-.83-.542-1.434V6.64c0-.15 0-.226.077-.377a3.76 3.76 0 0 1 1.084-2.038c.542-.528 1.239-.754 2.09-.754.697 0 1.162.15 1.549.528.387.377.542.83.542 1.51v.377c0 .15 0 .226-.077.377-.155.83-.542 1.51-1.084 1.962a3.193 3.193 0 0 1-2.09.755c-.62 0-1.162-.226-1.55-.528zm2.787-1.057c.232-.302.465-.679.542-1.207 0-.076 0-.151.077-.302V5.66c0-.302-.077-.603-.232-.754a.992.992 0 0 0-.697-.302c-.387 0-.774.15-1.006.453a2.496 2.496 0 0 0-.542 1.283c0 .075 0 .15-.077.226v.226c0 .302.077.604.232.755.155.151.387.227.697.227.464 0 .774-.076 1.006-.378z" fill="#EA2227"/><path d="M30.735.377h3.871c.775 0 1.317.151 1.704.453.387.302.619.755.619 1.434v.377c0 .151-.077.302-.077.453-.155.83-.542 1.434-1.162 1.963-.62.452-1.316.754-2.167.754h-2.09l-.62 3.02h-1.78L30.734.376zm.93 3.925h1.703c.464 0 .774-.076 1.084-.302.232-.226.387-.528.541-.906v-.377c0-.302-.077-.528-.31-.68-.231-.15-.541-.226-1.006-.226h-1.47l-.543 2.49z" fill="#1398E2"/><path d="M32.206.377h2.323c.774 0 1.316.151 1.703.453.387.302.62.755.62 1.434v.377c0 .151-.078.302-.078.453-.155.83-.542 1.434-1.161 1.963-.62.452-1.316.754-2.168.754h-2.09l-.62 3.02h-1.78L32.206.376zm-.542 3.925h1.704c.464 0 .774-.076 1.084-.302.232-.226.387-.528.542-.906v-.377c0-.302-.078-.528-.31-.68-.232-.15-.542-.226-1.007-.226h-1.47l-.543 2.49z" fill="#0872B9"/><path d="M44.826 9.811c-.542 1.208-1.084 1.887-1.394 2.189-.31.302-.929 1.057-2.477.981l.155-.906c1.238-.377 1.935-2.113 2.322-2.868l-.464-5.584h1.858l.077 3.547 1.549-3.547H48L44.826 9.81z" fill="#055093"/><path d="M40.49 4l-.62.453c-.618-.528-1.238-.83-2.4-.302-1.547.68-2.864 6.113 1.394 4.302l.233.302 1.703.075 1.084-4.905L40.49 4zm-1.006 2.717c-.31.755-.852 1.283-1.316 1.132-.465-.15-.62-.905-.387-1.66.31-.755.851-1.283 1.316-1.132.542.15.697.905.387 1.66z" fill="#0872B9"/><path d="M37.703 8.83c.31-.075.697-.15 1.161-.302l.233.302 1.703.076L41.884 4h-.387c-.774 1.887-2.168 3.547-3.794 4.83z" fill="#055093"/><path d="M22.142 4c-.387-.377-.93-.528-1.549-.528h-.387c-.154.453-.387.905-.619 1.358.232-.15.465-.226.774-.226.31 0 .542.075.697.302.155.15.232.452.232.754v.227c0 .075 0 .15-.077.302-.078.528-.31.98-.542 1.207-.232.302-.62.378-1.007.378-.31 0-.541-.076-.696-.227-.155-.15-.233-.453-.233-.755v-.226c0-.075 0-.15.078-.226 0-.151.077-.227.077-.302-.387.603-.929 1.207-1.47 1.736.077.301.232.528.464.754.387.378.929.529 1.548.529.774 0 1.471-.227 2.09-.755.542-.453.93-1.132 1.084-1.962 0-.151.078-.227.078-.378v-.377c0-.755-.155-1.208-.542-1.585z" fill="#A5002F"/></svg>