<svg width="52" height="16" viewBox="0 0 52 16" fill="none" xmlns="http://www.w3.org/2000/svg"><path d="M19.067 15.581L21.708.503h4.127L23.276 15.58h-4.21z" fill="#3C58BF"/><path d="M19.067 15.581L22.45.503h3.384L23.276 15.58h-4.21z" fill="#293688"/><path d="M38.216.67C37.39.335 36.07 0 34.419 0c-4.127 0-7.098 2.094-7.098 5.11 0 2.262 2.063 3.434 3.714 4.188 1.65.754 2.146 1.257 2.146 1.927 0 1.005-1.32 1.508-2.476 1.508-1.651 0-2.559-.251-3.962-.838l-.578-.251-.578 3.434c.99.42 2.807.838 4.705.838 4.375 0 7.264-2.094 7.264-5.277 0-1.76-1.073-3.1-3.55-4.189-1.485-.754-2.393-1.173-2.393-1.926 0-.67.743-1.34 2.393-1.34 1.404 0 2.394.25 3.137.586l.413.167.66-3.267z" fill="#3C58BF"/><path d="M38.216.67C37.39.335 36.07 0 34.419 0c-4.127 0-6.356 2.094-6.356 5.11 0 2.262 1.321 3.434 2.972 4.188 1.65.754 2.146 1.257 2.146 1.927 0 1.005-1.32 1.508-2.476 1.508-1.651 0-2.559-.251-3.962-.838l-.578-.251-.578 3.434c.99.42 2.807.838 4.705.838 4.375 0 7.264-2.094 7.264-5.277 0-1.76-1.073-3.1-3.55-4.189-1.485-.754-2.393-1.173-2.393-1.926 0-.67.743-1.34 2.393-1.34 1.404 0 2.394.25 3.137.586l.413.167.66-3.267z" fill="#293688"/><path d="M45.314.503c-.99 0-1.733.083-2.146 1.089l-6.19 13.99h4.457l.825-2.514h5.283l.495 2.513H52L48.533.503h-3.219zm-1.898 10.052c.248-.754 1.65-4.44 1.65-4.44s.33-.921.578-1.508l.248 1.424s.825 3.77.99 4.608h-3.466v-.084z" fill="#3C58BF"/><path d="M46.305.503c-.99 0-1.734.083-2.146 1.089l-7.181 13.99h4.457l.825-2.514h5.283l.495 2.513H52L48.533.503h-2.228zm-2.89 10.052c.331-.838 1.652-4.44 1.652-4.44s.33-.921.577-1.508l.248 1.424s.825 3.77.99 4.608h-3.466v-.084z" fill="#293688"/><path d="M11.473 11.058L11.06 8.88c-.742-2.513-3.136-5.278-5.777-6.618l3.714 13.403h4.457L20.14.587h-4.457l-4.21 10.47z" fill="#3C58BF"/><path d="M11.473 11.058L11.06 8.88c-.742-2.513-3.136-5.278-5.777-6.618l3.714 13.403h4.457L20.14.587h-3.632l-5.035 10.47z" fill="#293688"/><path d="M0 .503L.743.67C6.025 1.927 9.657 5.11 11.06 8.88L9.575 1.76C9.327.753 8.585.502 7.676.502H0z" fill="#FFBC00"/><path d="M0 .503c5.283 1.256 9.657 4.523 11.06 8.293L9.657 2.848c-.247-1.005-1.073-1.592-1.98-1.592L0 .503z" fill="#F7981D"/><path d="M0 .503c5.283 1.256 9.657 4.523 11.06 8.293l-.99-3.267c-.248-1.005-.578-2.01-1.733-2.43L0 .503z" fill="#ED7C00"/><path d="M15.6 10.555l-2.806-2.848-1.321 3.183-.33-2.094C10.4 6.283 8.006 3.518 5.365 2.178L9.08 15.581h4.458l2.063-5.026zm7.676 5.026l-3.549-3.686-.66 3.686h4.21zm9.492-5.194c.33.336.495.587.413.922 0 1.005-1.32 1.508-2.476 1.508-1.651 0-2.559-.251-3.962-.838l-.578-.251-.578 3.434c.99.42 2.807.838 4.705.838 2.641 0 4.787-.754 6.026-2.094l-3.55-3.519zm4.788 5.194h3.879l.825-2.513h5.283l.495 2.513H52l-1.403-6.115-4.953-4.859.248 1.34s.825 3.77.99 4.608h-3.466c.33-.838 1.65-4.44 1.65-4.44s.33-.921.578-1.508" fill="#051244"/></svg>