<svg width="46" height="46" viewBox="0 0 46 46" fill="none" xmlns="http://www.w3.org/2000/svg"><path d="M11.678 0h21.806C39.918 0 45.16 5.34 45.16 11.895v22.21C45.161 40.66 39.918 46 33.484 46H11.678C5.243 46 0 40.66 0 34.105v-22.21C0 5.34 5.243 0 11.678 0z" fill="#5A7DA3"/><path d="M13.525 22.576v-9.65c0-1.031.06-2.063.06-3.095 0-.364.06-.667.536-.667 4.29.06 8.52-.243 12.81.243 1.668.182 3.097.91 4.289 2.124 1.787 2.548 1.31 5.643.06 7.403-.596.85-1.43 1.457-2.384 1.882.239.242.477.242.715.364 2.562.85 4.23 2.549 4.41 5.4 0 .244.059.486.118.79-.06.607-.119 1.213-.238 1.76-.774 3.277-3.098 4.976-6.137 5.765-1.072.303-2.144.364-3.276.364H14.359c-.655 0-.775-.182-.775-.789 0-3.884-.06-7.89-.06-11.894zm6.434 4.672v2.731c0 .243-.06.607.298.546 1.728-.06 3.456.243 5.124-.364 1.55-.546 2.205-1.699 2.026-3.58-.12-1.335-1.132-2.246-2.622-2.488-1.43-.182-2.8-.061-4.23-.122-.476 0-.596.182-.596.668.06.85 0 1.699 0 2.61zm0-10.498v2.245c0 .364.06.546.477.546.953 0 1.966.06 2.92-.06 1.549-.122 2.442-1.153 2.442-2.731.06-1.517-.774-2.367-2.323-2.61-1.013-.182-2.026-.06-3.039-.121-.417 0-.536.121-.536.546.12.728.06 1.456.06 2.185z" fill="#fff"/></svg>