<svg width="52" height="20" viewBox="0 0 52 20" fill="none" xmlns="http://www.w3.org/2000/svg"><path d="M18.87 19.578h-8.554L6.206 0H13l1.761 12.068L16.606 0h7.8l1.846 12.405L28.097 0h6.71l-4.11 19.578H22.31L20.548 6.92" fill="#FFDD12"/><path d="M18.87 19.578h-8.554L6.206 0H13l1.761 12.068L16.606 0h7.8l1.846 12.405L28.097 0h6.71l-4.11 19.578H22.31L20.548 6.92" fill="#FFDD12"/><path d="M15.265 18.06c.754.674 1.76 1.18 2.935 1.518h.671L20.632 6.92l1.762 12.658h8.387L34.89.084h-6.71l-1.845 12.321L24.574.085h-7.8l-1.761 12.067L13.252.084v11.9c-.252 2.7.503 4.725 2.013 6.075z" fill="#FFC715"/><path d="M5.2 19.494H4.026L0 0h1.174" fill="#FFF315"/><path d="M8.303 19.494h-1.09L3.103 0h1.174" fill="#FFDD12"/><path d="M40.342 0v12.236c0 .76-.168 1.435-.503 1.857-.336.422-.755.675-1.258.675-.587 0-1.007-.253-1.342-.675-.336-.422-.42-1.097-.42-1.941V0h-1.425l-3.775 18.06a6.038 6.038 0 0 0 2.517 1.35c1.174.421 2.683.59 4.529.59 3.103 0 5.451-.675 6.96-1.94 1.51-1.351 2.265-3.376 2.265-6.161V0" fill="#000"/><path d="M29.439 0v11.899c0 1.519.167 2.7.42 3.544.25.76.67 1.519 1.257 2.11L34.806 0" fill="#FFA515"/><path d="M49.316 1.603h.336l.084.17.167.083.168-.084.084-.084-.084-.085-.168-.084c-.167 0-.251-.084-.335-.169l-.084-.253.084-.169.168-.169c.083 0 .167-.084.335-.084s.252 0 .336.084c.083.085.167.17.167.338h-.335l-.084-.169h-.252v.169l.168.084c.168 0 .252.085.336.085l.167.169.084.168-.335.17-.168.168-.336.084c-.251 0-.335-.084-.419-.169-.084-.084-.084-.168-.084-.253z" fill="#000"/><path d="M50.574.675h.503l.252.844.168-.844H52v1.35h-.335V1.013l-.252 1.012h-.252l-.251-1.012v1.012h-.336" fill="#000"/><path d="M31.62 18.06a6.038 6.038 0 0 0 2.516 1.35c1.174.421 2.683.59 4.529.59H39l4.11-20h-2.768v12.236c0 .76-.168 1.435-.503 1.857-.336.422-.755.675-1.258.675-.587 0-1.007-.253-1.342-.675-.336-.422-.42-1.097-.42-1.941V0h-1.425l-3.775 18.06z" fill="#44423E"/></svg>