<svg width="52" height="18" viewBox="0 0 52 18" fill="none" xmlns="http://www.w3.org/2000/svg">
<path d="M7.8716e-08 2.30137H1.81587L0.907937 -3.13537e-07L7.8716e-08 2.30137Z" transform="translate(4.45715 2.13696)" fill="#2FABF7"/>
<path d="M2.31111 0.0821912C2.14603 -6.30748e-07 1.89841 6.27074e-07 1.65079 6.27074e-07H-3.14864e-07V1.31507H1.65079C1.89841 1.31507 2.14603 1.31507 2.31111 1.23288C2.47619 1.15069 2.55873 0.90411 2.55873 0.657534C2.64127 0.328767 2.47619 0.164383 2.31111 0.0821912Z" transform="translate(24.6793 2.38367)" fill="#228FE0"/>
<path d="M44.654 -6.27074e-07V0.986301L44.1587 -6.27074e-07H40.2794V0.986301L39.7841 -6.27074e-07H34.5016C33.5937 -6.27074e-07 32.8508 0.164383 32.1905 0.49315V-6.27074e-07H28.4762V0.49315C28.0635 0.164383 27.5683 -6.27074e-07 26.9079 -6.27074e-07H13.619L12.7111 2.05479L11.8032 -6.27074e-07H7.59365V0.986301L7.09841 -6.27074e-07H3.54921L1.89841 3.86301L0 8.13699H1.89841H4.20952L4.70476 6.82192H5.86032L6.35556 8.13699H11.1429V7.15069L11.5556 8.13699H13.9492L14.3619 7.15069V8.13699H25.8349V6H26C26.1651 6 26.1651 6 26.1651 6.24658V8.0548H32.1079V7.56164C32.6032 7.80822 33.346 8.0548 34.3365 8.0548H36.8127L37.3079 6.73973H38.4635L38.9587 8.0548H43.746V6.82192L44.4889 8.0548H48.3683V-6.27074e-07H44.654ZM16.7556 6.90411H15.3524V2.38356L13.3714 6.90411H12.1333L10.1524 2.38356V6.90411H7.34603L6.76825 5.67123H3.96191L3.46667 6.9863H1.89841L4.3746 1.15069H6.4381L8.74921 6.65753V1.15069H10.9778L12.7937 5.09589L14.4444 1.15069H16.7556V6.90411ZM22.3683 2.38356H19.1492V3.45205H22.2857V4.60274H19.1492V5.75342H22.3683V6.9863H17.746V1.15069H22.3683V2.38356ZM28.5587 4.76712C28.7238 5.09589 28.8064 5.34247 28.8064 5.83562V6.9863H27.4032V6.24658C27.4032 5.91781 27.4032 5.42466 27.1556 5.09589C26.9079 4.84932 26.6603 4.84932 26.1651 4.84932H24.6794V6.9863H23.2762V1.15069H26.4127C27.1556 1.15069 27.6508 1.15069 28.0635 1.39726C28.4762 1.64384 28.7238 2.0548 28.7238 2.71233C28.7238 3.61644 28.146 4.10959 27.7333 4.27397C28.146 4.35616 28.3937 4.60274 28.5587 4.76712ZM31.0349 6.90411H29.6317V1.06849H31.0349V6.90411ZM47.2952 6.90411H45.3143L42.673 2.54795V6.90411H39.8667L39.3714 5.67123H36.4825L35.9873 6.9863H34.4191C33.7587 6.9863 32.9333 6.82192 32.4381 6.32877C31.9429 5.83562 31.6952 5.17808 31.6952 4.10959C31.6952 3.28767 31.8603 2.46575 32.4381 1.80822C32.8508 1.31507 33.5937 1.15069 34.5016 1.15069H35.8222V2.38356H34.5016C34.0064 2.38356 33.7587 2.46575 33.4286 2.71233C33.181 2.9589 33.0159 3.45206 33.0159 4.0274C33.0159 4.68493 33.0984 5.09589 33.4286 5.42466C33.6762 5.67123 34.0064 5.75342 34.4191 5.75342H34.9968L36.8952 1.23288H38.9587L41.2698 6.73973V1.23288H43.3333L45.727 5.26027V1.23288H47.1302V6.90411H47.2952Z" fill="#0571C1"/>
<path d="M-6.29728e-07 2.30137H1.89841L0.990476 -3.13537e-07L-6.29728e-07 2.30137Z" transform="translate(36.9778 2.13696)" fill="#228FE0"/>
<path d="M2.14603 4.68493V1.25415e-06L6.29728e-07 2.30137L2.14603 4.68493Z" transform="translate(20.8 11.589)" fill="#228FE0"/>
<path d="M3.14864e-07 -1.25415e-06V1.06849H3.05397V2.21918H3.14864e-07V3.45205H3.38413L4.95238 1.72603L3.46667 -1.25415e-06H3.14864e-07Z" transform="translate(14.1143 12.1644)" fill="#2FABF7"/>
<path d="M1.73333 -1.25415e-06H0V1.47945H1.81587C2.31111 1.47945 2.64127 1.23288 2.64127 0.739726C2.55873 0.246575 2.22857 -1.25415e-06 1.73333 -1.25415e-06Z" transform="translate(24.3492 12.1644)" fill="#228FE0"/>
<path d="M40.1143 3.69863V-6.27074e-07H39.1238H36.6476C35.9048 -6.27074e-07 35.327 0.164385 34.9143 0.493152V-6.27074e-07H31.1175C30.5397 -6.27074e-07 29.7968 0.164385 29.4667 0.493152V-6.27074e-07H22.781V0.493152C22.2857 0.082193 21.3778 -6.27074e-07 20.9651 -6.27074e-07H16.5079V0.493152C16.0952 0.082193 15.1048 -6.27074e-07 14.6095 -6.27074e-07H9.65714L8.50159 1.23288L7.42857 -6.27074e-07H-3.14864e-07V8.05479H7.26349L8.41905 6.82192L9.49206 8.05479H13.9492V6.16438H14.527C15.1048 6.16438 15.8476 6.16438 16.4254 5.91781V8.13699H20.1397V6H20.3048C20.5524 6 20.5524 6 20.5524 6.24658V8.13699H31.7778C32.5206 8.13699 33.2635 7.9726 33.6762 7.64384V8.13699H37.2254C37.9683 8.13699 38.7111 8.0548 39.2064 7.72603C40.0317 7.23288 40.527 6.32877 40.527 5.26027C40.527 4.68493 40.3619 4.10959 40.1143 3.69863ZM14.527 5.0137H12.8762V6.9863H10.2349L8.58413 5.09589L6.85079 6.9863H1.40317V1.15069H6.93333L8.58413 3.0411L10.3175 1.15069H14.6921C15.7651 1.15069 17.0032 1.47945 17.0032 3.0411C16.9206 4.68493 15.7651 5.0137 14.527 5.0137ZM22.781 4.68493C22.946 4.93151 23.0286 5.26027 23.0286 5.75342V6.90411H21.6254V6.16438C21.6254 5.83562 21.6254 5.26028 21.3778 5.0137C21.2127 4.76712 20.8825 4.76712 20.3873 4.76712H18.9016V6.90411H17.4984V1.06849H20.6349C21.2952 1.06849 21.873 1.06849 22.2857 1.31507C22.6984 1.56165 23.0286 1.9726 23.0286 2.63014C23.0286 3.53425 22.4508 4.0274 22.0381 4.19178C22.4508 4.35617 22.6984 4.52055 22.781 4.68493ZM28.4762 2.30137H25.2571V3.36986H28.3937V4.52055H25.2571V5.67123H28.4762V6.90411H23.854V1.06849H28.4762V2.30137ZM31.9429 6.90411H29.3016V5.67123H31.9429C32.1905 5.67123 32.3556 5.67123 32.5206 5.50685C32.6032 5.42466 32.6857 5.26027 32.6857 5.09589C32.6857 4.93151 32.6032 4.76712 32.5206 4.68493C32.4381 4.60274 32.273 4.52055 32.0254 4.52055C30.7048 4.43836 29.1365 4.52055 29.1365 2.71233C29.1365 1.89041 29.6317 0.986301 31.1175 0.986301H33.8413V2.38356H31.2825C31.0349 2.38356 30.8698 2.38356 30.7048 2.46575C30.5397 2.54794 30.5397 2.71233 30.5397 2.87671C30.5397 3.12329 30.7048 3.20548 30.8698 3.28767C31.0349 3.36986 31.2 3.36986 31.3651 3.36986H32.1079C32.8508 3.36986 33.346 3.53425 33.6762 3.86301C33.9238 4.10959 34.0889 4.52055 34.0889 5.09589C34.0889 6.32877 33.346 6.90411 31.9429 6.90411ZM39.0413 6.32877C38.7111 6.65753 38.1333 6.90411 37.3079 6.90411H34.6667V5.67123H37.3079C37.5556 5.67123 37.7206 5.67123 37.8857 5.50685C37.9683 5.42466 38.0508 5.26027 38.0508 5.09589C38.0508 4.93151 37.9683 4.76712 37.8857 4.68493C37.8032 4.60274 37.6381 4.52055 37.3905 4.52055C36.0698 4.43836 34.5016 4.52055 34.5016 2.71233C34.5016 1.89041 34.9968 0.986301 36.4825 0.986301H39.2064V2.38356H36.7302C36.4825 2.38356 36.3175 2.38356 36.1524 2.46575C35.9873 2.54794 35.9873 2.71233 35.9873 2.87671C35.9873 3.12329 36.0698 3.20548 36.3175 3.28767C36.4825 3.36986 36.6476 3.36986 36.8127 3.36986H37.5556C38.2984 3.36986 38.7937 3.53425 39.1238 3.86301C39.2063 3.86301 39.2064 3.9452 39.2064 3.9452C39.454 4.27397 39.5365 4.68493 39.5365 5.09589C39.5365 5.58904 39.3714 6 39.0413 6.32877Z" transform="translate(11.473 9.86292)" fill="#0571C1"/>
<path d="M2.31111 0.0821912C2.14603 -6.30748e-07 1.89841 6.27074e-07 1.65079 6.27074e-07H1.25946e-06V1.31507H1.65079C1.89841 1.31507 2.14603 1.31507 2.31111 1.23288C2.47619 1.15069 2.55873 0.90411 2.55873 0.657534C2.64127 0.328767 2.47619 0.164383 2.31111 0.0821912Z" transform="translate(30.4572 12.2466)" fill="#228FE0"/>
<path d="M2.31111 0.0821912C2.14603 -6.30748e-07 1.89841 6.27074e-07 1.65079 6.27074e-07H-3.14864e-07V1.31507H1.65079C1.89841 1.31507 2.14603 1.31507 2.31111 1.23288C2.47619 1.15069 2.55873 0.90411 2.55873 0.657534C2.64127 0.328767 2.47619 0.164383 2.31111 0.0821912Z" transform="translate(24.6794 2.38367)" fill="#228FE0"/>
<path d="M-6.29728e-07 2.30137H1.89841L0.990476 -3.13537e-07L-6.29728e-07 2.30137Z" transform="translate(36.9778 2.13696)" fill="#228FE0"/>
<path d="M2.14603 4.68493V1.25415e-06L6.29728e-07 2.30137L2.14603 4.68493Z" transform="translate(20.8 11.589)" fill="#228FE0"/>
<path d="M1.73333 -1.25415e-06H0V1.47945H1.81587C2.31111 1.47945 2.64127 1.23288 2.64127 0.739726C2.55873 0.246575 2.22857 -1.25415e-06 1.73333 -1.25415e-06Z" transform="translate(24.3492 12.1644)" fill="#228FE0"/>
<path d="M2.31111 0.0821912C2.14603 -6.30748e-07 1.89841 6.27074e-07 1.65079 6.27074e-07H1.25946e-06V1.31507H1.65079C1.89841 1.31507 2.14603 1.31507 2.31111 1.23288C2.47619 1.15069 2.55873 0.90411 2.55873 0.657534C2.64127 0.328767 2.47619 0.164383 2.31111 0.0821912Z" transform="translate(30.4572 12.2466)" fill="#228FE0"/>
<path d="M14.0317 6.73973L12.8762 5.50685V6.90411H10.1524L8.50159 5.0137L6.68572 6.90411H1.2381V1.15069H6.76826L8.50159 3.0411L9.32699 2.05479L7.26349 -6.27074e-07H-3.14864e-07V8.05479H7.26349L8.50159 6.82192L9.5746 8.05479H14.0317V6.73973Z" transform="translate(11.473 9.86292)" fill="#2FABF7"/>
<path d="M16.9206 8.0548L15.8476 6.90411H15.3524V6.41096L14.1143 5.17808L13.2889 6.90411H12.1333L10.1524 2.38356V6.90411H7.34603L6.76825 5.67123H3.96191L3.38413 6.90411H1.89841L4.3746 1.15069H6.4381L8.74921 6.65753V1.15069H9.9873L8.83175 -6.27074e-07H7.59365V0.986301L7.18095 -6.27074e-07H3.54921L1.89841 3.86301L0 8.0548H1.89841H4.29206L4.7873 6.82192H5.94286L6.52064 8.0548H11.1429V7.06849L11.5556 8.0548H13.9492L14.3619 7.06849V8.0548H16.9206Z" fill="#2FABF7"/>
<path d="M1.32063 1.31507L1.57432e-07 -3.13537e-07L0.990476 2.13699L1.32063 1.31507Z" transform="translate(11.8032 2.95886)" fill="#2FABF7"/>
<path d="M32.6857 7.89041C33.4286 7.39726 33.9238 6.57534 34.0064 5.67123L32.8508 4.52055C32.9333 4.76712 33.0159 5.0137 33.0159 5.34247C33.0159 5.83562 32.8508 6.24658 32.5206 6.57534C32.1905 6.90411 31.6127 7.15069 30.7873 7.15069H28.146V5.91781H30.7873C31.0349 5.91781 31.2 5.91781 31.3651 5.75342C31.4476 5.67123 31.5302 5.50685 31.5302 5.34247C31.5302 5.17808 31.4476 5.0137 31.3651 4.93151C31.2825 4.84932 31.1175 4.76712 30.8698 4.76712C29.5492 4.68493 27.981 4.76712 27.981 2.9589C27.981 2.13699 28.4762 1.39726 29.7143 1.23288L28.8064 0.328768C28.6413 0.41096 28.5587 0.493149 28.4762 0.493149V0H24.6794C24.1016 0 23.3587 0.164382 23.0286 0.493149V0H16.2603V0.493149C15.7651 0.0821905 14.8571 0 14.4444 0H9.9873V0.493149C9.5746 0.0821905 8.58413 0 8.08889 0H3.13651L1.98095 1.23288L0.907936 0H-6.29728e-07L2.47619 2.46575L3.71429 1.15069H8.08889C9.16191 1.15069 10.4 1.47945 10.4 3.0411C10.4 4.68493 9.24444 5.0137 8.00635 5.0137H6.35556V6.24657L7.59365 7.47945V6.24657H8.00635C8.58413 6.24657 9.32698 6.24657 9.90476 6V8.21918H13.619V6.08219H13.7841C14.0317 6.08219 14.0317 6.08219 14.0317 6.32877V8.21918H25.2571C26 8.21918 26.7429 8.0548 27.1556 7.72603V8.21918H30.7048C31.3651 8.30137 32.1079 8.21918 32.6857 7.89041ZM16.2603 4.93151C16.4254 5.17808 16.5079 5.50685 16.5079 6V7.15069H15.1048V6.41096C15.1048 6.08219 15.1048 5.50685 14.8571 5.26028C14.6921 5.0137 14.3619 5.0137 13.8667 5.0137H12.381V7.15069H10.9778V1.31507H14.1143C14.7746 1.31507 15.3524 1.31507 15.7651 1.56165C16.1778 1.80822 16.5079 2.21918 16.5079 2.87671C16.5079 3.78082 15.9302 4.27397 15.5175 4.43836C15.9302 4.60274 16.1778 4.76712 16.2603 4.93151ZM21.9556 2.54794H18.7365V3.61644H21.873V4.76712H18.7365V5.91781H21.9556V7.15069H17.3333V1.31507H21.9556V2.54794ZM25.4222 7.15069H22.781V5.91781H25.4222C25.6698 5.91781 25.8349 5.91781 26 5.75342C26.0825 5.67123 26.1651 5.50685 26.1651 5.34247C26.1651 5.17808 26.0825 5.0137 26 4.93151C25.9175 4.84932 25.7524 4.76712 25.5048 4.76712C24.1841 4.68493 22.6159 4.76712 22.6159 2.9589C22.6159 2.13699 23.1111 1.23288 24.5968 1.23288H27.3206V2.63014H24.7619C24.5143 2.63014 24.3492 2.63014 24.1841 2.71233C24.019 2.79452 24.0191 2.9589 24.0191 3.12329C24.0191 3.36986 24.1841 3.45205 24.3492 3.53425C24.5143 3.61644 24.6794 3.61644 24.8444 3.61644H25.5873C26.3302 3.61644 26.8254 3.78082 27.1556 4.10959C27.4032 4.35616 27.5683 4.76712 27.5683 5.34247C27.5683 6.57534 26.8254 7.15069 25.4222 7.15069Z" transform="translate(17.9937 9.61658)" fill="#228FE0"/>
<path d="M1.25946e-06 0.49315C1.25946e-06 0.739725 0.082539 0.821917 0.330158 0.904109C0.495237 0.986301 0.660319 0.986303 0.825398 0.986303H1.56825C2.06349 0.986303 2.39365 1.06849 2.72381 1.23288L1.48571 6.27074e-07H0.742857C0.495237 6.27074e-07 0.330157 -6.30748e-07 0.165078 0.0821911C0.0825384 0.164383 1.25946e-06 0.328766 1.25946e-06 0.49315Z" transform="translate(47.3777 12.2467)" fill="#228FE0"/>
<path d="M1.25946e-06 -6.27074e-07L0.165078 0.246576H0.24762L1.25946e-06 -6.27074e-07Z" transform="translate(44.4889 7.80835)" fill="#228FE0"/>
<path d="M1.25946e-06 -6.27074e-07L1.40317 3.36986V1.39726L1.25946e-06 -6.27074e-07Z" transform="translate(39.9492 3.28784)" fill="#228FE0"/>
<path d="M17.6635 5.91781H17.8286C17.9937 5.91781 17.9937 5.91781 17.9937 6.16438V7.9726H23.9365V7.47945C24.4317 7.72603 25.1746 7.9726 26.1651 7.9726H28.6413L29.1365 6.65754H30.2921L30.7873 7.9726H35.5746V7.15069L34.419 6V6.90411H31.6127L31.2 5.58904H28.3111L27.8159 6.90411H26.2476C25.5873 6.90411 24.7619 6.73973 24.2667 6.24658C23.7714 5.75343 23.5238 5.09589 23.5238 4.0274C23.5238 3.20548 23.6889 2.38356 24.2667 1.72603C24.6794 1.23288 25.4222 1.06849 26.3302 1.06849H27.6508V2.30137H26.3302C25.8349 2.30137 25.5873 2.38356 25.2571 2.63014C25.0095 2.87671 24.8444 3.36986 24.8444 3.94521C24.8444 4.60274 24.927 5.0137 25.2571 5.34247C25.5048 5.58904 25.8349 5.67123 26.2476 5.67123H26.8254L28.7238 1.15068H29.5492L28.3937 -3.13537e-07H26.2476C25.3397 -3.13537e-07 24.5968 0.164384 23.9365 0.493151V-3.13537e-07H20.3048V0.493151C19.8921 0.164384 19.3968 -3.13537e-07 18.7365 -3.13537e-07H5.44762L4.53968 2.05479L3.63175 -3.13537e-07H-3.14864e-07L1.15556 1.15068H2.80635L4.20952 4.19178L4.70476 4.68493L6.19048 1.06849H8.50159V6.90411H7.09841V2.38356L5.69524 5.67123L8.08889 8.0548H17.581L17.6635 5.91781ZM21.4603 1.06849H22.8635V6.90411H21.4603V1.06849ZM14.1968 2.30137H10.9778V3.36986H14.1143V4.52055H10.9778V5.67123H14.1968V6.90411H9.5746V1.06849H14.1968V2.30137ZM16.5079 6.82192H15.1048V0.986302H18.2413C18.9841 0.986302 19.4794 0.986301 19.8921 1.23288C20.3048 1.47945 20.5524 1.89041 20.5524 2.54795C20.5524 3.45205 19.9746 3.94521 19.5619 4.10959C19.8921 4.19178 20.1397 4.43836 20.2222 4.60274C20.3873 4.93151 20.4698 5.17808 20.4698 5.67123V6.82192H19.0667V6.08219C19.0667 5.75342 19.0667 5.26027 18.819 4.93151C18.7365 4.76712 18.4889 4.76712 17.9937 4.76712H16.5079V6.82192Z" transform="translate(8.17139 0.0821533)" fill="#228FE0"/>
</svg>
