<svg width="20" height="20" viewBox="0 0 20 20" fill="none" xmlns="http://www.w3.org/2000/svg">
<path fill-rule="evenodd" clip-rule="evenodd" d="M19.4395 2.56065C20.0253 1.97486 20.0253 1.02512 19.4395 0.439339C18.8537 -0.146446 17.9039 -0.146446 17.3181 0.439339L9.89346 7.86399L2.56066 0.531197C1.97488 -0.0545883 1.02514 -0.0545883 0.439339 0.531197C-0.146446 1.11698 -0.146446 2.06675 0.439339 2.65253L7.77215 9.98533L0.439461 17.318C-0.146324 17.9038 -0.146324 18.8536 0.439461 19.4393C1.02526 20.0251 1.975 20.0251 2.56078 19.4393L9.89346 12.1067L17.318 19.5312C17.9038 20.117 18.8536 20.117 19.4394 19.5312C20.0251 18.9454 20.0251 17.9957 19.4394 17.4099L12.0148 9.98533L19.4395 2.56065Z" transform="translate(0.00610352)" fill="white"/>
</svg>
