<svg width="40" height="40" viewBox="0 0 40 40" fill="none" xmlns="http://www.w3.org/2000/svg">
<circle cx="20" cy="20" r="20" fill="#2E2E2E"/>
<path fill-rule="evenodd" clip-rule="evenodd" d="M17.4733 13.8015C18.177 14.3876 18.1771 15.3292 17.4646 15.9119L15.7353 17.3261C15.0269 17.9056 13.7412 18.1744 12.8789 17.879C12.8789 17.879 9.39469 17.2223 5.08202 12.9114C0.76935 8.60048 0.112299 5.11771 0.112299 5.11771C-0.161868 4.24897 0.0825002 2.97463 0.665416 2.26247L2.08028 0.533904C2.65993 -0.174258 3.60468 -0.178751 4.19156 0.525217L6.32716 3.08688C6.71765 3.55528 6.76218 4.34288 6.42145 4.85376L5.47246 6.27665C5.47246 6.27665 5.48395 8.62981 7.42465 10.5697C9.36535 12.5096 11.7195 12.5211 11.7195 12.5211L13.143 11.5725C13.6506 11.2342 14.4455 11.2794 14.9106 11.6667L17.4733 13.8015Z" transform="translate(11 11)" stroke="white" stroke-width="2" stroke-linecap="round" stroke-linejoin="round"/>
</svg>
