<svg width="46" height="46" viewBox="0 0 46 46" fill="none" xmlns="http://www.w3.org/2000/svg">
<path d="M33.4837 0H11.6776C5.243 0 0 5.34037 0 11.8945V34.1055C0 40.6596 5.243 46 11.6776 46H15.5503H24.0701V28.219H18.1718V20.9367H24.0701V14.8681C24.0701 10.438 27.5853 6.85752 31.9346 6.85752H38.0713V13.3509H33.6624C32.2921 13.3509 31.1601 14.504 31.1601 15.8997V20.9367H37.9522L36.9989 28.1583H31.1601V45.9393H33.4837C37.118 45.9393 40.3353 44.2401 42.4802 41.6306C44.1484 39.5673 45.1613 36.9578 45.1613 34.0449V11.8945C45.1613 5.34037 39.9183 0 33.4837 0Z" fill="#2554A2"/>
<path d="M18.8271 21.3615L19.7804 14.1398H12.9883V9.1029C12.9883 7.70712 14.1203 6.55409 15.4907 6.55409H19.8996V1.15749e-07H13.7629C9.41356 1.15749e-07 5.89837 3.58047 5.89837 8.01055V14.0792H0V21.3008H5.89837V39.0818H12.9883V21.3615H18.8271Z" transform="translate(18.1719 6.85767)" fill="white"/>
</svg>
