<svg width="46" height="46" viewBox="0 0 46 46" fill="none" xmlns="http://www.w3.org/2000/svg">
<path d="M11.6776 0H33.4837C39.9183 0 45.1613 5.34037 45.1613 11.8945V34.1055C45.1613 40.6596 39.9183 46 33.4837 46H11.6776C5.243 46 0 40.6596 0 34.1055V11.8945C0 5.34037 5.243 0 11.6776 0Z" fill="url(#paint0_linear)"/>
<path d="M23.5935 2.31499e-07H9.59231C4.28973 2.31499e-07 0 4.36939 0 9.77045V24.0317C0 29.4327 4.28973 33.8021 9.59231 33.8021H23.5935C28.8961 33.8021 33.1858 29.4327 33.1858 24.0317V9.70976C33.1858 4.36939 28.8961 2.31499e-07 23.5935 2.31499e-07ZM30.1472 24.2137C30.1472 27.7942 27.2874 30.7071 23.7722 30.7071H9.41357C5.89837 30.7071 3.03856 27.7942 3.03856 24.2137V9.64908C3.03856 6.0686 5.89837 3.15567 9.41357 3.15567H23.7722C27.2874 3.15567 30.1472 6.0686 30.1472 9.64908V24.2137Z" transform="translate(5.95801 6.12964)" fill="white"/>
<path d="M8.57945 2.31499e-07C3.81309 2.31499e-07 0 3.94459 0 8.73879C0 13.533 3.87267 17.4776 8.57945 17.4776C13.3458 17.4776 17.1589 13.533 17.1589 8.73879C17.1589 3.94459 13.2862 2.31499e-07 8.57945 2.31499e-07ZM8.57945 14.4433C5.48132 14.4433 2.97898 11.8945 2.97898 8.73879C2.97898 5.58311 5.48132 3.0343 8.57945 3.0343C11.6776 3.0343 14.1799 5.58311 14.1799 8.73879C14.1204 11.8945 11.618 14.4433 8.57945 14.4433Z" transform="translate(14.0012 14.322)" fill="white"/>
<path d="M2.0257 4.12665C3.14447 4.12665 4.05141 3.20287 4.05141 2.06332C4.05141 0.923782 3.14447 0 2.0257 0C0.906938 0 0 0.923782 0 2.06332C0 3.20287 0.906938 4.12665 2.0257 4.12665Z" transform="translate(29.4324 11.895)" fill="white"/>
<defs>
<linearGradient id="paint0_linear" x2="1" gradientUnits="userSpaceOnUse" gradientTransform="translate(-15.7406 22.986) scale(54.1751 55.1812) rotate(-45)">
<stop stop-color="#EEB744"/>
<stop offset="0.316" stop-color="#E96376"/>
<stop offset="0.5123" stop-color="#E63393"/>
<stop offset="0.5828" stop-color="#D4369D"/>
<stop offset="0.7249" stop-color="#A43DB8"/>
<stop offset="0.9237" stop-color="#5848E2"/>
<stop offset="0.9831" stop-color="#404BEF"/>
</linearGradient>
</defs>
</svg>
