<svg width="50" height="30" viewBox="0 0 50 30" fill="none" xmlns="http://www.w3.org/2000/svg">
<path d="M25 26.1111C28.0159 23.4127 29.9206 19.4444 29.9206 15C29.9206 10.5556 28.0159 6.66667 25 3.88889C22.381 1.50794 18.8095 3.02754e-07 15 3.02754e-07C6.74603 3.02754e-07 0 6.74603 0 15C0 23.254 6.74603 29.9206 15 29.9206C18.8095 30 22.381 28.4921 25 26.1111Z" fill="#07A9E2"/>
<path d="M0 15C0 23.254 6.74603 29.9206 15 29.9206C18.8889 29.9206 22.381 28.4921 25 26.0317C28.0159 23.3333 29.9206 19.3651 29.9206 14.9206C29.9206 10.4762 28.0159 6.66667 25 3.88889C22.381 1.50794 18.8095 3.02754e-07 15 3.02754e-07" fill="#009DDD"/>
<path d="M18.4127 3.88889C15.7937 1.50794 12.2222 3.02754e-07 8.4127 3.02754e-07C8.1746 3.02754e-07 7.93651 3.02754e-07 7.69841 3.02754e-07C3.01587 3.4127 1.51377e-07 8.88889 1.51377e-07 15C1.51377e-07 21.1111 3.01587 26.5873 7.61905 29.9206C7.85714 29.9206 8.09524 29.9206 8.33333 29.9206C12.2222 29.9206 15.7143 28.4921 18.3333 26.0317C21.3492 23.3333 23.254 19.3651 23.254 14.9206C23.254 10.4762 21.4286 6.66667 18.4127 3.88889Z" transform="translate(6.58728)" fill="#0284CC"/>
<path d="M14.6825 3.02754e-07C10.7936 3.02754e-07 7.30159 1.42857 4.60317 3.88889C4.04762 4.36508 3.57143 4.92064 3.09524 5.47619H6.11111C6.50794 5.95238 6.90476 6.50794 7.22222 7.06349H1.90476C1.5873 7.61905 1.26984 8.09524 1.03175 8.65079H8.09524C8.33333 9.20635 8.57143 9.68254 8.73016 10.2381H0.47619C0.31746 10.7937 0.158731 11.2698 6.05507e-07 11.8254H9.20635C9.44444 12.8571 9.52381 13.8889 9.52381 15C9.52381 16.6667 9.28571 18.254 8.73016 19.7619H0.47619C0.63492 20.3175 0.873016 20.7937 1.11111 21.3492H8.1746C7.93651 21.9048 7.61905 22.4603 7.30159 22.9365H1.98413C2.30159 23.4921 2.69841 24.0476 3.09524 24.5238H6.11111C5.63492 25.0794 5.15873 25.6349 4.60317 26.1111C7.30159 28.4921 10.7936 30 14.6825 30C22.9365 30 29.6032 23.3333 29.6032 15.0794C29.6032 6.74603 22.9365 3.02754e-07 14.6825 3.02754e-07Z" transform="translate(20.3969)" fill="#FF2957"/>
<path d="M14.6825 3.02754e-07C10.7936 3.02754e-07 7.30159 1.42857 4.60317 3.88889C4.04762 4.36508 3.57143 4.92064 3.09524 5.47619H6.11111C6.50794 5.95238 6.90476 6.50794 7.22222 7.06349H1.90476C1.5873 7.61905 1.26984 8.09524 1.03175 8.65079H8.09524C8.33333 9.20635 8.57143 9.68254 8.73016 10.2381H0.47619C0.31746 10.7937 0.158731 11.2698 6.05507e-07 11.8254H9.20635C9.44444 12.8571 9.52381 13.8889 9.52381 15C9.52381 16.6667 9.28571 18.254 8.73016 19.7619H0.47619C0.63492 20.3175 0.873016 20.7937 1.11111 21.3492H8.1746C7.93651 21.9048 7.61905 22.4603 7.30159 22.9365H1.98413C2.30159 23.4921 2.69841 24.0476 3.09524 24.5238H6.11111C5.63492 25.0794 5.15873 25.6349 4.60317 26.1111C7.30159 28.4921 10.7936 30 14.6825 30C22.9365 30 29.6032 23.3333 29.6032 15.0794" transform="translate(20.3969)" fill="#ED1C2E"/>
<path d="M0 22.2222C3.01587 19.5238 4.92064 15.5556 4.92064 11.1111C4.92064 6.66667 3.01587 2.77778 0 0V22.2222Z" transform="translate(25 3.88892)" fill="#0466B5"/>
<path d="M0 0.476189C0 0.238094 0.238094 0 0.476189 0C0.714284 0 0.952382 0.238094 0.952382 0.476189C0.952382 0.714285 0.714284 0.952382 0.476189 0.952382C0.238094 0.952382 0 0.714285 0 0.476189ZM0.476189 0.873015C0.714284 0.873015 0.793651 0.714285 0.793651 0.476189C0.793651 0.238094 0.634919 0.158731 0.476189 0.158731C0.238094 0.158731 0.0793639 0.317459 0.0793639 0.476189C0.0793639 0.634919 0.317459 0.873015 0.476189 0.873015ZM0.476189 0.63492H0.396825V0.238095H0.555556C0.634921 0.238095 0.63492 0.238095 0.63492 0.238095L0.714287 0.317462C0.714287 0.396827 0.714285 0.396825 0.63492 0.396825L0.714287 0.555556H0.63492L0.555556 0.396825H0.476189V0.63492ZM0.476189 0.396825C0.555554 0.396825 0.555556 0.396825 0.555556 0.396825C0.555556 0.396825 0.555556 0.396827 0.555556 0.317462H0.476189V0.396825Z" transform="translate(44.8413 17.7778)" fill="white"/>
<path d="M4.60318 3.74158C4.04762 4.21777 3.57143 4.77333 3.09524 5.32889H6.11111C6.50794 5.80508 6.90476 6.36063 7.22222 6.91619H1.90476C1.5873 7.47174 1.26984 7.94793 1.03175 8.50349H8.09524C8.33333 9.05904 8.57143 9.53523 8.73016 10.0908H0.47619C0.31746 10.6463 0.158731 11.1225 6.05508e-07 11.6781H9.20635C9.44444 12.7098 9.52381 13.7416 9.52381 14.8527C9.52381 16.5194 9.28572 18.1067 8.73016 19.6146H0.47619C0.63492 20.1702 0.873016 20.6463 1.11111 21.2019H8.1746C7.93651 21.7575 7.61905 22.313 7.30159 22.7892H1.98413C2.30159 23.3448 2.69841 23.9003 3.09524 24.3765H6.11111C5.63492 24.9321 5.15873 25.4876 4.60318 25.9638C7.30159 28.3448 10.7937 29.8527 14.6825 29.8527C14.9206 29.8527 15.1587 29.8527 15.3968 29.8527C20 26.5194 23.0159 21.0432 23.0159 14.9321C23.0159 8.82095 20 3.34476 15.3968 0.0114252C15.1587 0.0114252 14.9206 0.0114252 14.6825 0.0114252C10.7937 -0.147305 7.30159 1.36063 4.60318 3.74158Z" transform="translate(20.3969 0.147339)" fill="#D1094B"/>
<path d="M8.09524 7.61905H6.19048L7.30159 1.8254L4.7619 7.61905H3.09524L2.77778 1.8254L1.66667 7.61905H1.51377e-07L1.42857 3.02754e-07H4.36508L4.52381 4.7619L6.5873 3.02754e-07H9.60317L8.09524 7.61905Z" transform="translate(5 11.1111)" fill="white"/>
<path d="M0.0793649 4.20635L1.19048 1.74603L0.31746 6.34921C0.396825 6.74603 0.47619 7.22222 0.63492 7.61905H1.90476L3.33333 6.05508e-07H0.555556C0.238095 1.19048 3.02754e-07 2.53968 3.02754e-07 3.88889C0.0793654 3.96825 0.0793649 4.04762 0.0793649 4.20635Z" transform="translate(11.1904 11.1907)" fill="#DCE5E5"/>
<path d="M2.77778 7.46032C2.22222 7.61905 1.90476 7.69841 1.42857 7.69841C0.47619 7.69841 6.05508e-07 7.22222 6.05508e-07 6.34921C6.05508e-07 6.19048 -6.09055e-07 6.03175 0.0793645 5.79365L0.158731 5.15873L0.238095 4.68254L1.11111 6.05508e-07H2.93651L2.69841 1.42857H3.65079L3.4127 2.85714H2.46032L1.98413 5.39683C1.98413 5.47619 1.90476 5.63492 1.90476 5.63492C1.90476 5.95238 2.14286 6.11111 2.53968 6.11111C2.77778 6.11111 2.93651 6.11111 3.01587 6.03175L2.77778 7.46032Z" transform="translate(31.1111 11.1902)" fill="#DCE5E5"/>
<path d="M4.84127 0.15873C4.68254 0.0793651 4.68254 0.0793648 4.60317 0.0793648C4.52381 0.0793648 4.44444 0.0793645 4.44444 -6.05508e-07C4.36508 -6.05508e-07 4.36508 -6.05508e-07 4.20635 -6.05508e-07C3.57143 -6.05508e-07 3.1746 0.238096 2.61905 1.03175L2.77778 0.0793648H1.11111L0 6.26984H1.90476C2.53968 2.46032 2.85714 1.8254 3.73016 1.8254C3.80952 1.8254 3.88889 1.8254 3.96825 1.8254L4.20635 1.90476L4.84127 0.15873Z" transform="translate(34.5237 12.46)" fill="#DCE5E5"/>
<path d="M0.714287 2.06349C0.714287 2.85714 1.19048 3.4127 2.14286 3.73016C2.93651 4.04762 3.01587 4.12699 3.01587 4.44445C3.01587 4.84127 2.69841 5 1.90476 5C1.34921 5 0.79365 4.92063 0.238095 4.7619L0 6.19047H0.0793639L0.396825 6.26984C0.47619 6.26984 0.714284 6.26984 0.873015 6.26984C1.34921 6.34921 1.66667 6.34921 1.90476 6.34921C3.88889 6.34921 4.84127 5.71429 4.84127 4.28571C4.84127 3.4127 4.44445 2.93651 3.49206 2.53968C2.69841 2.22222 2.61905 2.14286 2.61905 1.90476C2.61905 1.5873 2.93651 1.42857 3.57143 1.42857C3.88889 1.42857 4.44445 1.42857 4.92064 1.50794L5.15873 0.0793648C4.68254 -3.01571e-07 3.96826 -6.05508e-07 3.49206 -6.05508e-07C1.42857 -6.05508e-07 0.714287 0.952381 0.714287 2.06349Z" transform="translate(25.7936 12.46)" fill="#DCE5E5"/>
<path d="M5.15873 6.34921H3.65079V5.71429C3.1746 6.19048 2.53968 6.42857 1.66667 6.42857C0.634921 6.42857 3.02754e-07 5.71429 3.02754e-07 4.76191C3.02754e-07 3.25397 1.19048 2.38095 3.25397 2.38095C3.49206 2.38095 3.73016 2.38095 4.04762 2.38095C4.12699 2.14286 4.12698 2.06349 4.12698 1.98413C4.12698 1.5873 3.80952 1.42857 2.93651 1.42857C2.38095 1.42857 1.8254 1.50794 1.42857 1.5873L1.19048 1.66667H1.03175L1.26984 0.317461C2.22222 0.0793654 2.77778 6.05508e-07 3.49206 6.05508e-07C5.07937 6.05508e-07 5.95238 0.634921 5.95238 1.8254C5.95238 2.14286 5.95238 2.38095 5.79365 3.09524L5.39683 5.31746L5.31746 5.71429L5.2381 6.03175V6.26984L5.15873 6.34921ZM3.80952 3.57143C3.57143 3.57143 3.49206 3.57143 3.4127 3.57143C2.38095 3.57143 1.8254 3.88889 1.8254 4.52381C1.8254 4.92064 2.06349 5.15873 2.46032 5.15873C3.25397 5.15873 3.80952 4.52381 3.80952 3.57143Z" transform="translate(13.9681 12.3807)" fill="#DCE5E5"/>
<path d="M5.07936 6.19048C4.44444 6.34921 3.80952 6.42857 3.1746 6.42857C1.11111 6.42857 -3.02754e-07 5.47619 -3.02754e-07 3.65079C-3.02754e-07 1.50794 1.34921 6.05508e-07 3.25397 6.05508e-07C4.7619 6.05508e-07 5.71428 0.873016 5.71428 2.22222C5.71428 2.69841 5.63492 3.09524 5.47619 3.73016H1.74603C1.74603 3.80953 1.74603 3.88889 1.74603 3.96825C1.74603 4.68254 2.30159 5.07936 3.33333 5.07936C4.04762 5.07936 4.60317 5 5.2381 4.68254L5.07936 6.19048ZM4.12698 2.53968C4.12698 2.46032 4.12698 2.30159 4.12698 2.22222C4.12698 1.74603 3.80952 1.42857 3.25397 1.42857C2.69841 1.42857 2.22222 1.8254 2.06349 2.53968H4.12698Z" transform="translate(20.1587 12.3807)" fill="#DCE5E5"/>
<path d="M6.5873 3.57143C6.26984 5.63492 4.84127 6.50794 2.93651 6.50794C0.873015 6.50794 -1.21101e-06 5.23809 -1.21101e-06 3.65079C-1.21101e-06 1.50794 1.42857 6.05508e-07 3.65079 6.05508e-07C5.55556 6.05508e-07 6.5873 1.26984 6.5873 2.77778C6.5873 3.1746 6.5873 3.1746 6.5873 3.57143ZM4.60318 2.77778C4.60318 2.14286 4.36508 1.5873 3.57143 1.5873C2.61905 1.5873 2.06349 2.69841 2.06349 3.73016C2.06349 4.52381 2.46032 5.07936 3.09524 5.07936C3.49206 5.07936 4.36508 4.52381 4.52381 3.57143C4.60317 3.25397 4.60318 3.01587 4.60318 2.77778Z" transform="translate(38.5714 12.3809)" fill="white"/>
<path d="M0.0595244 1.90476C0.138889 1.34921 0.218255 0.714286 0.218255 0.15873C0.218255 0.0793651 0.218255 -6.05508e-07 0.218255 -6.05508e-07C0.13889 0.396825 0.0595244 0.793652 0.0595244 1.26984C-0.0198407 1.42857 -0.0198407 1.66667 0.0595244 1.90476Z" transform="translate(38.5912 14.8413)" fill="white"/>
</svg>
