<svg width="50" height="30" viewBox="0 0 50 30" fill="none" xmlns="http://www.w3.org/2000/svg">
<path d="M30 15C30 23.254 23.3333 30 15 30C6.74603 30 6.05508e-07 23.254 6.05508e-07 15C6.05508e-07 6.74603 6.66667 3.02754e-07 14.9206 3.02754e-07C23.3333 3.02754e-07 30 6.74603 30 15Z" transform="translate(20)" fill="#FFB600"/>
<path d="M15 3.02754e-07C23.254 3.02754e-07 30 6.74603 30 15C30 23.254 23.3333 30 15 30C6.74603 30 6.05508e-07 23.254 6.05508e-07 15" transform="translate(20)" fill="#F7981D"/>
<path d="M-1.21102e-06 3.02754e-07C8.25397 3.02754e-07 15 6.74603 15 15C15 23.254 8.33333 30 -1.21102e-06 30" transform="translate(35)" fill="#FF8500"/>
<path d="M14.8413 3.02754e-07C6.66667 0.0793654 0 6.74603 0 15C0 23.254 6.66667 30 15 30C18.8889 30 22.381 28.4921 25.0794 26.1111C25.6349 25.6349 26.1111 25.0794 26.5873 24.5238H23.4921C23.0952 24.0476 22.6984 23.4921 22.381 23.0159H27.6984C28.0159 22.5397 28.3333 21.9841 28.5714 21.4286H21.5079C21.2698 20.9524 21.0317 20.3968 20.873 19.8413H29.127C29.6032 18.3333 29.9206 16.746 29.9206 15.0794C29.9206 13.9683 29.7619 12.9365 29.6032 11.9048H20.3968C20.4762 11.3492 20.6349 10.873 20.7937 10.3175H29.0476C28.8889 9.7619 28.6508 9.20635 28.4127 8.73016H21.4286C21.6667 8.1746 21.9841 7.69841 22.3016 7.14286H27.619C27.3016 6.5873 26.9048 6.03175 26.4286 5.55556H23.4921C23.9683 5 24.4444 4.52381 25 4.04762C22.381 1.5873 18.8095 0.15873 14.9206 0.15873C14.9206 1.53742e-07 14.9206 3.02754e-07 14.8413 3.02754e-07Z" fill="#FF5050"/>
<path d="M0 14.8413C0 23.0952 6.66667 29.8413 15 29.8413C18.8889 29.8413 22.381 28.3333 25.0794 25.9524C25.6349 25.4762 26.1111 24.9206 26.5873 24.3651H23.4921C23.0952 23.8889 22.6984 23.3333 22.381 22.8571H27.6984C28.0159 22.381 28.3333 21.8254 28.5714 21.2698H21.5079C21.2698 20.7936 21.0317 20.2381 20.873 19.6825H29.127C29.6032 18.1746 29.9206 16.5873 29.9206 14.9206C29.9206 13.8095 29.7619 12.7778 29.6032 11.746H20.3968C20.4762 11.1905 20.6349 10.7143 20.7937 10.1587H29.0476C28.8889 9.60318 28.6508 9.04762 28.4127 8.57143H21.4286C21.6667 8.01587 21.9841 7.53968 22.3016 6.98413H27.619C27.3016 6.42857 26.9048 5.87302 26.4286 5.39683H23.4921C23.9683 4.84127 24.4444 4.36508 25 3.88889C22.381 1.42857 18.8095 1.51377e-07 14.9206 1.51377e-07H14.8413" transform="translate(0 0.158691)" fill="#E52836"/>
<path d="M0.15873 29.8413C4.04762 29.8413 7.53968 28.3333 10.2381 25.9524C10.7937 25.4762 11.2698 24.9206 11.746 24.3651H8.65079C8.25397 23.8889 7.85714 23.3333 7.53968 22.8571H12.8571C13.1746 22.381 13.4921 21.8254 13.7302 21.2698H6.66667C6.42857 20.7936 6.19048 20.2381 6.03175 19.6825H14.2857C14.7619 18.1746 15.0794 16.5873 15.0794 14.9206C15.0794 13.8095 14.9206 12.7778 14.7619 11.746H5.55556C5.63492 11.1905 5.79365 10.7143 5.95238 10.1587H14.2063C14.0476 9.60318 13.8095 9.04762 13.5714 8.57143H6.5873C6.8254 8.01587 7.14286 7.53968 7.46032 6.98413H12.7778C12.4603 6.42857 12.0635 5.87302 11.5873 5.39683H8.65079C9.12698 4.84127 9.60317 4.36508 10.1587 3.88889C7.53968 1.42857 3.96825 1.51377e-07 0.0793645 1.51377e-07H6.05508e-07" transform="translate(14.8413 0.158691)" fill="#CB2026"/>
<path d="M2.30159 6.98413L2.53968 5.63492C2.46032 5.63492 2.30159 5.71429 2.14286 5.71429C1.5873 5.71429 1.50794 5.39682 1.5873 5.23809L2.06349 2.46032H2.93651L3.1746 0.952382H2.38095L2.53968 0H0.952381C0.952381 0 6.05508e-07 5.2381 6.05508e-07 5.87302C6.05508e-07 6.8254 0.555555 7.22222 1.26984 7.22222C1.74603 7.22222 2.14286 7.06349 2.30159 6.98413Z" transform="translate(18.0159 11.8254)" fill="white"/>
<path d="M-6.05508e-07 3.58147C-6.05508e-07 5.80369 1.50794 6.35925 2.77778 6.35925C3.96825 6.35925 4.44444 6.12116 4.44444 6.12116L4.7619 4.61322C4.7619 4.61322 3.88889 5.01005 3.09524 5.01005C1.34921 5.01005 1.66667 3.7402 1.66667 3.7402H4.92063C4.92063 3.7402 5.15873 2.70846 5.15873 2.31163C5.15873 1.27989 4.60317 0.0100449 2.85714 0.0100449C1.19048 -0.148685 -6.05508e-07 1.59735 -6.05508e-07 3.58147ZM2.77778 1.27989C3.65079 1.27989 3.49206 2.31163 3.49206 2.391H1.74603C1.74603 2.31163 1.90476 1.27989 2.77778 1.27989Z" transform="translate(20.873 12.6884)" fill="white"/>
<path d="M4.36508 7.69841L4.68254 5.95238C4.68254 5.95238 3.88889 6.34921 3.33333 6.34921C2.22222 6.34921 1.74603 5.47619 1.74603 4.52381C1.74603 2.61905 2.69841 1.5873 3.80952 1.5873C4.60317 1.5873 5.23809 2.06349 5.23809 2.06349L5.47619 0.396826C5.47619 0.396826 4.52381 3.02754e-07 3.65079 3.02754e-07C1.8254 3.02754e-07 0 1.5873 0 4.60318C0 6.5873 0.95238 7.93651 2.85714 7.93651C3.49206 7.93651 4.36508 7.69841 4.36508 7.69841Z" transform="translate(29.3651 11.1111)" fill="white"/>
<path d="M3.01587 -3.02754e-07C1.90476 -3.02754e-07 1.11111 0.31746 1.11111 0.31746L0.873016 1.66667C0.873016 1.66667 1.5873 1.34921 2.61905 1.34921C3.1746 1.34921 3.65079 1.42857 3.65079 1.90476C3.65079 2.22222 3.57143 2.30159 3.57143 2.30159C3.57143 2.30159 3.09524 2.30159 2.85714 2.30159C1.50794 2.30159 1.51377e-07 2.85714 1.51377e-07 4.68254C1.51377e-07 6.11111 0.952381 6.42857 1.50794 6.42857C2.61905 6.42857 3.09524 5.71428 3.1746 5.71428L3.09524 6.34921H4.52381L5.15873 1.98413C5.15873 0.0793646 3.57143 -3.02754e-07 3.01587 -3.02754e-07ZM3.33333 3.57143C3.33333 3.80953 3.1746 5.07936 2.22222 5.07936C1.74603 5.07936 1.5873 4.68254 1.5873 4.44444C1.5873 4.04762 1.8254 3.49206 3.01587 3.49206C3.25397 3.57143 3.33333 3.57143 3.33333 3.57143Z" transform="translate(8.57141 12.5397)" fill="white"/>
<path d="M1.8254 6.50794C2.22222 6.50794 4.20635 6.5873 4.20635 4.44445C4.20635 2.46032 2.30159 2.85714 2.30159 2.06349C2.30159 1.66667 2.61905 1.50794 3.1746 1.50794C3.4127 1.50794 4.28571 1.5873 4.28571 1.5873L4.52381 0.15873C4.52381 0.15873 3.96825 -6.05508e-07 3.01587 -6.05508e-07C1.8254 -6.05508e-07 0.634921 0.47619 0.634921 2.06349C0.634921 3.88889 2.61905 3.73016 2.61905 4.44445C2.61905 4.92064 2.06349 5 1.66667 5C0.952381 5 0.238096 4.7619 0.238096 4.7619L-3.02754e-07 6.19047C0.0793648 6.34921 0.476191 6.50794 1.8254 6.50794Z" transform="translate(13.4127 12.4603)" fill="white"/>
<path d="M4.52381 -6.05508e-07L4.20635 2.14286C4.20635 2.14286 3.57143 1.34921 2.69841 1.34921C1.26984 1.34921 1.21102e-06 3.09524 1.21102e-06 5.15873C1.21102e-06 6.42857 0.634922 7.77778 1.98413 7.77778C2.93651 7.77778 3.49206 7.14286 3.49206 7.14286L3.4127 7.69841H5L6.19048 0.0793648L4.52381 -6.05508e-07ZM3.80952 4.20635C3.80952 5.07936 3.4127 6.19047 2.53968 6.19047C1.98413 6.19047 1.66667 5.71429 1.66667 4.92063C1.66667 3.65079 2.22222 2.85714 2.93651 2.85714C3.49206 2.85714 3.80952 3.25397 3.80952 4.20635Z" transform="translate(42.381 11.2699)" fill="white"/>
<path d="M1.50794 7.61905L2.46032 1.90476L2.61905 7.61905H3.73016L5.79365 1.90476L4.92063 7.61905H6.5873L7.85714 -6.05508e-07H5.23809L3.65079 4.68254L3.57143 -6.05508e-07H1.26984L-3.78442e-08 7.61905H1.50794Z" transform="translate(1.42859 11.2699)" fill="white"/>
<path d="M1.74603 6.19048C2.22222 3.57143 2.30159 1.42857 3.4127 1.8254C3.57143 0.793651 3.80952 0.396826 3.96825 3.02754e-07C3.96825 3.02754e-07 3.88889 3.02754e-07 3.65079 3.02754e-07C2.93651 3.02754e-07 2.38095 0.95238 2.38095 0.95238L2.53968 0.0793657H1.03175L0 6.26984H1.74603V6.19048Z" transform="translate(25.7937 12.6984)" fill="white"/>
<path d="M3.01587 -3.02754e-07C1.90476 -3.02754e-07 1.11111 0.31746 1.11111 0.31746L0.873017 1.66667C0.873017 1.66667 1.5873 1.34921 2.61905 1.34921C3.1746 1.34921 3.65079 1.42857 3.65079 1.90476C3.65079 2.22222 3.57143 2.30159 3.57143 2.30159C3.57143 2.30159 3.09524 2.30159 2.85714 2.30159C1.50794 2.30159 -6.05508e-07 2.85714 -6.05508e-07 4.68254C-6.05508e-07 6.11111 0.952382 6.42857 1.50794 6.42857C2.61905 6.42857 3.09524 5.71428 3.1746 5.71428L3.09524 6.34921H4.52381L5.15873 1.98413C5.23809 0.0793646 3.57143 -3.02754e-07 3.01587 -3.02754e-07ZM3.4127 3.57143C3.4127 3.80953 3.25397 5.07936 2.30159 5.07936C1.8254 5.07936 1.66667 4.68254 1.66667 4.44444C1.66667 4.04762 1.90476 3.49206 3.09524 3.49206C3.33333 3.57143 3.33333 3.57143 3.4127 3.57143Z" transform="translate(34.3651 12.5397)" fill="white"/>
<path d="M1.74603 6.19048C2.22222 3.57143 2.30159 1.42857 3.4127 1.8254C3.57143 0.793651 3.80952 0.396826 3.96825 3.02754e-07C3.96825 3.02754e-07 3.88889 3.02754e-07 3.65079 3.02754e-07C2.93651 3.02754e-07 2.38095 0.95238 2.38095 0.95238L2.53968 0.0793657H1.03174L-6.05507e-07 6.26984H1.74603V6.19048Z" transform="translate(39.127 12.6984)" fill="white"/>
<path d="M0 5.87302C0 6.8254 0.555556 7.22222 1.26984 7.22222C1.8254 7.22222 2.30159 7.06349 2.46032 6.98413L2.69841 5.63492C2.61905 5.63492 2.46032 5.71429 2.30159 5.71429C1.74603 5.71429 1.66667 5.39682 1.74603 5.23809L2.22222 2.46032H3.09524L3.33333 0.952382H2.53968L2.69841 0" transform="translate(17.8572 11.8254)" fill="#DCE5E5"/>
<path d="M-6.05508e-07 3.58147C-6.05508e-07 5.80369 0.714285 6.35925 1.98413 6.35925C3.1746 6.35925 3.65079 6.12116 3.65079 6.12116L3.96825 4.61322C3.96825 4.61322 3.09524 5.01005 2.30159 5.01005C0.555556 5.01005 0.873016 3.7402 0.873016 3.7402H4.12698C4.12698 3.7402 4.36508 2.70846 4.36508 2.31163C4.36508 1.27989 3.80952 0.0100449 2.06349 0.0100449C0.396825 -0.148685 -6.05508e-07 1.59735 -6.05508e-07 3.58147ZM1.98413 1.27989C2.85714 1.27989 3.01587 2.31163 3.01587 2.391H0.952381C0.952381 2.31163 1.11111 1.27989 1.98413 1.27989Z" transform="translate(21.6666 12.6884)" fill="#DCE5E5"/>
<path d="M3.57143 7.69841L3.88889 5.95238C3.88889 5.95238 3.09524 6.34921 2.53968 6.34921C1.42857 6.34921 0.952382 5.47619 0.952382 4.52381C0.952382 2.61905 1.90476 1.5873 3.01587 1.5873C3.80952 1.5873 4.44444 2.06349 4.44444 2.06349L4.68254 0.396826C4.68254 0.396826 3.73016 3.02754e-07 2.85714 3.02754e-07C1.03174 3.02754e-07 0 1.5873 0 4.60318C0 6.5873 0.158729 7.93651 2.06349 7.93651C2.69841 7.93651 3.57143 7.69841 3.57143 7.69841Z" transform="translate(30.1587 11.1111)" fill="#DCE5E5"/>
<path d="M0.873016 1.5873C0.873016 1.5873 1.5873 1.26984 2.61905 1.26984C3.1746 1.26984 3.65079 1.34921 3.65079 1.8254C3.65079 2.14286 3.57143 2.22222 3.57143 2.22222C3.57143 2.22222 3.09524 2.22222 2.85714 2.22222C1.50794 2.22222 1.51377e-07 2.77778 1.51377e-07 4.60318C1.51377e-07 6.03175 0.952381 6.34921 1.50794 6.34921C2.61905 6.34921 3.09524 5.63492 3.1746 5.63492L3.09524 6.26984H4.52381L5.15873 1.90476C5.15873 0.0793652 3.57143 3.02754e-07 2.93651 3.02754e-07L0.873016 1.5873ZM4.12698 3.4127C4.12698 3.65079 3.1746 4.92063 2.22222 4.92063C1.74603 4.92063 1.5873 4.52381 1.5873 4.28571C1.5873 3.88889 1.8254 3.33333 3.01587 3.33333C3.25397 3.4127 4.12698 3.4127 4.12698 3.4127Z" transform="translate(8.57141 12.6984)" fill="#DCE5E5"/>
<path d="M0 6.34921C0 6.34921 0.47619 6.50794 1.8254 6.50794C2.22222 6.50794 4.20635 6.5873 4.20635 4.44445C4.20635 2.46032 2.30159 2.85714 2.30159 2.06349C2.30159 1.66667 2.61905 1.50794 3.1746 1.50794C3.4127 1.50794 4.28571 1.5873 4.28571 1.5873L4.52381 0.15873C4.52381 0.15873 3.96825 -6.05508e-07 3.01587 -6.05508e-07C1.8254 -6.05508e-07 1.42857 0.47619 1.42857 2.06349C1.42857 3.88889 2.61905 3.73016 2.61905 4.44445C2.61905 4.92064 2.06349 5 1.66667 5" transform="translate(13.4921 12.4603)" fill="#DCE5E5"/>
<path d="M3.41846 2.06349C3.41846 2.06349 2.78354 1.26984 1.91052 1.26984C0.481949 1.26984 0.00576013 3.01587 0.00576013 5.07936C0.00576013 6.34921 -0.15297 7.69841 1.19624 7.69841C2.14862 7.69841 2.70417 7.06349 2.70417 7.06349L2.62481 7.61905H4.21211L5.40259 -3.02754e-07L3.41846 2.06349ZM3.33909 4.12698C3.33909 5 2.62481 6.11111 1.75179 6.11111C1.19623 6.11111 0.878775 5.63492 0.878775 4.84127C0.878775 3.57143 1.43433 2.77778 2.14861 2.77778C2.70417 2.77778 3.33909 3.1746 3.33909 4.12698Z" transform="translate(43.1688 11.3492)" fill="#DCE5E5"/>
<path d="M1.50794 7.61905L2.46032 1.90476L2.61905 7.61905H3.73016L5.79365 1.90476L4.92063 7.61905H6.5873L7.85714 -6.05508e-07H5.87302L3.65079 4.68254L3.57143 -6.05508e-07H2.69841L-3.78442e-08 7.61905H1.50794Z" transform="translate(1.42859 11.2699)" fill="#DCE5E5"/>
<path d="M-1.21102e-06 6.19048H1.66667C2.14286 3.57143 2.22222 1.42857 3.33333 1.8254C3.49206 0.793651 3.73016 0.396826 3.88889 3.02754e-07C3.88889 3.02754e-07 3.80952 3.02754e-07 3.57143 3.02754e-07C2.85714 3.02754e-07 2.30159 0.95238 2.30159 0.95238L2.46032 0.0793657" transform="translate(25.873 12.6984)" fill="#DCE5E5"/>
<path d="M0.873017 1.5873C0.873017 1.5873 1.5873 1.26984 2.61905 1.26984C3.1746 1.26984 3.65079 1.34921 3.65079 1.8254C3.65079 2.14286 3.57143 2.22222 3.57143 2.22222C3.57143 2.22222 3.09524 2.22222 2.85714 2.22222C1.50794 2.22222 -6.05508e-07 2.77778 -6.05508e-07 4.60318C-6.05508e-07 6.03175 0.952382 6.34921 1.50794 6.34921C2.61905 6.34921 3.09524 5.63492 3.1746 5.63492L3.09524 6.26984H4.52381L5.15873 1.90476C5.15873 0.0793652 3.57143 3.02754e-07 2.93651 3.02754e-07L0.873017 1.5873ZM4.12698 3.4127C4.12698 3.65079 3.1746 4.92063 2.22222 4.92063C1.74603 4.92063 1.5873 4.52381 1.5873 4.28571C1.5873 3.88889 1.8254 3.33333 3.01587 3.33333C3.33333 3.4127 4.12698 3.4127 4.12698 3.4127Z" transform="translate(34.3651 12.6984)" fill="#DCE5E5"/>
<path d="M1.21102e-06 6.19048H1.66667C2.14286 3.57143 2.22222 1.42857 3.33333 1.8254C3.49206 0.793651 3.73016 0.396826 3.88889 3.02754e-07C3.88889 3.02754e-07 3.80953 3.02754e-07 3.57143 3.02754e-07C2.85714 3.02754e-07 2.30159 0.95238 2.30159 0.95238L2.46032 0.0793657" transform="translate(39.2064 12.6984)" fill="#DCE5E5"/>
</svg>
