<svg width="94" height="94" viewBox="0 0 94 94" fill="none" xmlns="http://www.w3.org/2000/svg">
<path fill-rule="evenodd" clip-rule="evenodd" d="M45 90C69.8528 90 90 69.8528 90 45C90 20.1472 69.8528 0 45 0C20.1472 0 0 20.1472 0 45C0 69.8528 20.1472 90 45 90Z" transform="translate(2 2)" stroke="white" stroke-width="4" stroke-linecap="round" stroke-linejoin="round"/>
<path d="M19.0919 0C16.2311 9.06991 9.06991 16.2311 0 19.0919" transform="translate(55.8086 55.8085)" stroke="white" stroke-width="4" stroke-linecap="round" stroke-linejoin="round"/>
<path d="M0 19.0919H0C2.86076 10.022 10.022 2.86076 19.0919 0" transform="translate(19.0996 19.0997)" stroke="white" stroke-width="4" stroke-linecap="round" stroke-linejoin="round"/>
<path fill-rule="evenodd" clip-rule="evenodd" d="M9 18C13.9706 18 18 13.9706 18 9C18 4.02944 13.9706 0 9 0C4.02944 0 0 4.02944 0 9C0 13.9706 4.02944 18 9 18Z" transform="translate(38 37.9999)" stroke="white" stroke-width="4" stroke-linecap="round" stroke-linejoin="round"/>
</svg>
