<svg width="65" height="78" viewBox="0 0 65 78" fill="none" xmlns="http://www.w3.org/2000/svg">
<path fill-rule="evenodd" clip-rule="evenodd" d="M37.8 0H18.2L12.6 7H4.20046C1.8881 7 0 8.87482 0 11.1875V37.8125C0 40.1215 1.87677 42 4.19188 42H51.8049C54.1218 42 56 40.1215 56 37.8125V11.1875C56 8.87482 54.1119 7 51.7995 7H43.4L37.8 0Z" transform="translate(4 2)" stroke="#75442A" stroke-width="4" stroke-linecap="round" stroke-linejoin="round"/>
<path fill-rule="evenodd" clip-rule="evenodd" d="M9.8 19.6C15.2124 19.6 19.6 15.2124 19.6 9.8C19.6 4.38761 15.2124 0 9.8 0C4.38761 0 0 4.38761 0 9.8C0 15.2124 4.38761 19.6 9.8 19.6Z" transform="translate(22.2002 14.6)" stroke="#75442A" stroke-width="4" stroke-linecap="round" stroke-linejoin="round"/>
<path d="M1.078 14V4.872H3.136V8.386H6.286V4.872H8.358V14H6.286V10.192H3.136V14H1.078ZM10.5116 14V4.872H16.2236V6.608H12.5696V8.442H15.6776V10.164H12.5696V12.264H16.3636V14H10.5116ZM19.9595 14V6.608H17.4535V4.872H24.5375V6.608H22.0315V14H19.9595ZM35.8195 9.394C35.8195 8.75933 35.6469 8.288 35.3015 7.98C34.9655 7.66267 34.5035 7.48067 33.9155 7.434V11.41C34.5035 11.3633 34.9655 11.1767 35.3015 10.85C35.6469 10.5233 35.8195 10.038 35.8195 9.394ZM30.2475 9.394C30.2475 10.038 30.4155 10.5233 30.7515 10.85C31.0875 11.1767 31.5495 11.3633 32.1375 11.41V7.434C31.5495 7.48067 31.0875 7.66267 30.7515 7.98C30.4155 8.288 30.2475 8.75933 30.2475 9.394ZM32.1375 14.168V12.936C30.9522 12.8707 30.0189 12.544 29.3375 11.956C28.6562 11.3587 28.3155 10.5047 28.3155 9.394C28.3155 8.29267 28.6562 7.45733 29.3375 6.888C30.0189 6.30933 30.9522 5.98267 32.1375 5.908V4.704H33.9155V5.908C35.1102 5.98267 36.0482 6.30467 36.7295 6.874C37.4109 7.44333 37.7515 8.28333 37.7515 9.394C37.7515 10.514 37.4109 11.368 36.7295 11.956C36.0482 12.5347 35.1102 12.8613 33.9155 12.936V14.168H32.1375ZM43.165 14.168C42.549 14.168 41.9843 14.0607 41.471 13.846C40.967 13.622 40.533 13.3047 40.169 12.894C39.805 12.4833 39.5203 11.984 39.315 11.396C39.119 10.808 39.021 10.1407 39.021 9.394C39.021 8.64733 39.119 7.98467 39.315 7.406C39.5203 6.818 39.805 6.328 40.169 5.936C40.533 5.53467 40.967 5.23133 41.471 5.026C41.9843 4.81133 42.549 4.704 43.165 4.704C43.781 4.704 44.341 4.81133 44.845 5.026C45.3583 5.23133 45.797 5.53467 46.161 5.936C46.525 6.33733 46.805 6.832 47.001 7.42C47.2063 7.99867 47.309 8.65667 47.309 9.394C47.309 10.1407 47.2063 10.808 47.001 11.396C46.805 11.984 46.525 12.4833 46.161 12.894C45.797 13.3047 45.3583 13.622 44.845 13.846C44.341 14.0607 43.781 14.168 43.165 14.168ZM43.165 12.39C43.7903 12.39 44.285 12.124 44.649 11.592C45.013 11.0507 45.195 10.318 45.195 9.394C45.195 8.47933 45.013 7.76533 44.649 7.252C44.285 6.73867 43.7903 6.482 43.165 6.482C42.5396 6.482 42.045 6.73867 41.681 7.252C41.317 7.76533 41.135 8.47933 41.135 9.394C41.135 10.318 41.317 11.0507 41.681 11.592C42.045 12.124 42.5396 12.39 43.165 12.39ZM50.4068 14V6.608H47.9008V4.872H54.9848V6.608H52.4788V14H50.4068ZM59.7216 14.168C59.1056 14.168 58.5409 14.0607 58.0276 13.846C57.5236 13.622 57.0896 13.3047 56.7256 12.894C56.3616 12.4833 56.0769 11.984 55.8716 11.396C55.6756 10.808 55.5776 10.1407 55.5776 9.394C55.5776 8.64733 55.6756 7.98467 55.8716 7.406C56.0769 6.818 56.3616 6.328 56.7256 5.936C57.0896 5.53467 57.5236 5.23133 58.0276 5.026C58.5409 4.81133 59.1056 4.704 59.7216 4.704C60.3376 4.704 60.8976 4.81133 61.4016 5.026C61.9149 5.23133 62.3536 5.53467 62.7176 5.936C63.0816 6.33733 63.3616 6.832 63.5576 7.42C63.7629 7.99867 63.8656 8.65667 63.8656 9.394C63.8656 10.1407 63.7629 10.808 63.5576 11.396C63.3616 11.984 63.0816 12.4833 62.7176 12.894C62.3536 13.3047 61.9149 13.622 61.4016 13.846C60.8976 14.0607 60.3376 14.168 59.7216 14.168ZM59.7216 12.39C60.3469 12.39 60.8416 12.124 61.2056 11.592C61.5696 11.0507 61.7516 10.318 61.7516 9.394C61.7516 8.47933 61.5696 7.76533 61.2056 7.252C60.8416 6.73867 60.3469 6.482 59.7216 6.482C59.0963 6.482 58.6016 6.73867 58.2376 7.252C57.8736 7.76533 57.6916 8.47933 57.6916 9.394C57.6916 10.318 57.8736 11.0507 58.2376 11.592C58.6016 12.124 59.0963 12.39 59.7216 12.39Z" transform="translate(0 60)" fill="#75442A"/>
</svg>
