<svg width="18" height="18" viewBox="0 0 18 18" fill="none" xmlns="http://www.w3.org/2000/svg">
<path fill-rule="evenodd" clip-rule="evenodd" d="M15.5318 12.268C16.1573 12.789 16.1574 13.6259 15.5241 14.1439L13.987 15.401C13.3572 15.916 12.2144 16.155 11.4479 15.8925C11.4479 15.8925 8.35083 15.3087 4.51735 11.4768C0.683867 7.64488 0.0998216 4.54908 0.0998216 4.54908C-0.143883 3.77686 0.0733335 2.64412 0.591481 2.01109L1.84914 0.474582C2.36438 -0.154896 3.20416 -0.15889 3.72583 0.466859L5.62414 2.74389C5.97125 3.16025 6.01082 3.86034 5.70796 4.31445L4.86441 5.57925C4.86441 5.57925 4.87462 7.67094 6.59969 9.39529C8.32476 11.1196 10.4173 11.1299 10.4173 11.1299L11.6826 10.2867C12.1339 9.98597 12.8405 10.0261 13.2539 10.3704L15.5318 12.268Z" transform="translate(1 1)" stroke="#CDA267" stroke-width="2" stroke-linecap="round" stroke-linejoin="round"/>
</svg>
