<svg width="18" height="18" viewBox="0 0 18 18" fill="none" xmlns="http://www.w3.org/2000/svg">
<path fill-rule="evenodd" clip-rule="evenodd" d="M0 14C0 15.1046 3.58172 16 8 16C12.4183 16 16 15.1046 16 14V2C16 0.89543 12.4183 0 8 0C3.58172 0 0 0.89543 0 2V14Z" transform="translate(1 1)" stroke="#75442A" stroke-width="2" stroke-linecap="round" stroke-linejoin="round"/>
<path d="M0 0C0 1.10457 3.58172 2 8 2V2C12.4183 2 16 1.10457 16 0" transform="translate(1 3)" stroke="#75442A" stroke-width="2" stroke-linecap="round" stroke-linejoin="round"/>
<path d="M0 0C0 1.10457 3.58172 2 8 2V2C12.4183 2 16 1.10457 16 0" transform="translate(1 7)" stroke="#75442A" stroke-width="2" stroke-linecap="round" stroke-linejoin="round"/>
<path d="M0 0C0 1.10457 3.58172 2 8 2V2C12.4183 2 16 1.10457 16 0" transform="translate(1 11)" stroke="#75442A" stroke-width="2" stroke-linecap="round" stroke-linejoin="round"/>
</svg>
