<svg width="48" height="20" viewBox="0 0 48 20" fill="none" xmlns="http://www.w3.org/2000/svg">
<path d="M1.39355 1.28302H1.62581C1.85806 1.28302 2.0129 1.20755 2.09032 1.0566L2.7871 0.0754728H4.56774L4.18064 0.679246H6.34839L6.03871 1.66038H3.48387C3.17419 2.11321 2.86452 2.26415 2.4 2.26415H1.08387L1.39355 1.28302ZM1.08387 2.64151H5.72903L5.41935 3.69811H3.56129L3.25161 4.75472H5.10968L4.8 5.81132H2.94193L2.47742 7.32075C2.4 7.54717 2.47742 7.69811 2.86452 7.62264H4.33548L4.02581 8.60377H1.16129C0.619355 8.60377 0.464516 8.30189 0.619354 7.69811L1.16129 5.73585H0L0.309677 4.67924H1.47097L1.78064 3.62264H0.696774L1.08387 2.64151ZM8.59355 0.0754728L8.51613 0.679246C8.51613 0.679246 9.36774 -5.75803e-07 10.2194 -5.75803e-07H13.1613L12 4.07547C11.9226 4.5283 11.5355 4.75472 10.7613 4.75472H7.43226L6.65806 7.54717C6.58065 7.69811 6.65806 7.77358 6.8129 7.77358H7.50968L7.27742 8.60377H5.57419C4.95484 8.60377 4.64516 8.45283 4.8 8L7.04516 -5.75803e-07H8.59355V0.0754728ZM11.071 1.20755H8.43871L8.12903 2.26415C8.12903 2.26415 8.59355 1.96227 9.29032 1.96227C9.9871 1.96227 10.8387 1.96227 10.8387 1.96227L11.071 1.20755ZM10.1419 3.69811C10.3742 3.69811 10.4516 3.62264 10.4516 3.4717L10.6065 2.86792H7.97419L7.74194 3.69811H10.1419ZM8.36129 4.98113H9.90968V5.66038H10.2968C10.529 5.66038 10.6065 5.58491 10.6065 5.43396L10.7613 4.98113H12L11.8452 5.58491C11.6903 6.11321 11.3032 6.33962 10.6839 6.41509H9.83226V7.54717C9.83226 7.69811 9.9871 7.84906 10.2968 7.84906H11.071L10.8387 8.75472H8.98064C8.43871 8.75472 8.20645 8.5283 8.20645 8L8.36129 4.98113Z" transform="translate(17.4193 11.1699)" fill="#009DA5"/>
<path d="M1.85806 1.88679C1.93548 1.81132 2.09032 1.66038 2.16774 1.5849H4.72258L5.03226 0.603773H2.86452L3.25161 0H1.47097L0.774194 0.905661C0.696775 1.0566 0.541936 1.13208 0.309678 1.13208H0.0774188L5.90663e-07 1.35849C0.619355 1.50943 1.23871 1.73585 1.85806 1.88679Z" transform="translate(18.7355 11.3208)" fill="#02CCCC"/>
<path d="M2.16774 0.603774L2.24516 1.15161e-06H0.696774L5.90663e-07 2.41509C0.387097 2.41509 0.851612 2.49057 1.23871 2.49057C3.01935 2.49057 4.64516 2.26415 6.27097 1.81132L6.8129 1.15161e-06H3.87097C3.01936 1.15161e-06 2.16774 0.603774 2.16774 0.603774ZM4.49032 1.88679C4.49032 1.88679 3.63871 1.88679 2.94194 1.88679C2.16774 1.88679 1.78065 2.18868 1.78065 2.18868L2.09032 1.13208H4.72258L4.49032 1.88679Z" transform="translate(23.7677 11.2454)" fill="#02CCCC"/>
<path d="M2.0129 1.28302L2.4 0.0754729H4.18065L4.10323 0.528302C4.10323 0.528302 5.03226 0.0754729 5.65161 0.0754729C6.27097 0.0754729 7.89678 0.0754729 7.89678 0.0754729L7.50968 1.28302H7.2L5.49677 7.01887H5.80645L5.49677 8.15094H5.10968L4.95484 8.67924H3.25161L3.40645 8.15094H0L0.309679 7.01887H0.619354L2.32258 1.28302H2.0129ZM3.94839 1.28302L3.48387 2.86792C3.48387 2.86792 4.25807 2.56604 4.95484 2.49057C5.10968 1.96226 5.26452 1.28302 5.26452 1.28302H3.94839ZM3.32903 3.62264L2.86452 5.28302C2.86452 5.28302 3.71613 4.90566 4.33548 4.83019C4.49032 4.22642 4.64516 3.62264 4.64516 3.62264H3.32903ZM3.63871 7.01887L3.94839 5.81132H2.63226L2.32258 7.01887H3.63871ZM7.97419 -5.75803e-07H9.67742L9.75484 0.603772C9.75484 0.754716 9.83226 0.83019 10.0645 0.83019H10.3742L10.0645 1.88679H8.82581C8.36129 1.88679 8.12903 1.73585 8.05161 1.35849L7.97419 -5.75803e-07ZM7.50968 2.26415H12.929L12.6194 3.32076H10.9161L10.6065 4.37736H12.3097L12 5.50943H10.0645L9.6 6.18868H10.529L10.7613 7.4717C10.7613 7.62264 10.9161 7.69811 11.071 7.69811H11.3806L11.071 8.75472H10.0645C9.52258 8.75472 9.2129 8.60377 9.2129 8.22642L8.98064 7.01887L8.12903 8.30189C7.89677 8.67924 7.5871 8.83019 7.2 8.83019H5.57419L5.88387 7.77358H6.34839C6.58065 7.77358 6.73549 7.69811 6.89032 7.4717L8.20645 5.58491H6.50323L6.8129 4.45283H8.67097L8.98064 3.39623H7.12258L7.50968 2.26415Z" transform="translate(30.1936 11.1699)" fill="#009DA5"/>
<path d="M2.09032 0H0.309676L5.90663e-07 0.981132C0.696775 0.679245 1.39355 0.377358 2.09032 0Z" transform="translate(32.2839 11.3208)" fill="#02CCCC"/>
<path d="M7.2 5.88679C6.96774 6.86792 6.50323 7.62264 5.80645 8.15094C5.03226 8.67924 4.10323 8.98113 2.94194 8.98113C1.85806 8.98113 1.00645 8.67924 0.541935 8.15094C0.154839 7.77358 0 7.24528 0 6.64151C0 6.41509 0 6.11321 0.0774193 5.81132L1.31613 0H3.17419L1.93548 5.73585C1.93548 5.88679 1.85806 6.03774 1.85806 6.18868C1.85806 6.49057 1.93548 6.71698 2.09032 6.9434C2.32258 7.24528 2.70968 7.39623 3.17419 7.39623C3.71613 7.39623 4.25806 7.24528 4.56774 7.01887C4.95484 6.71698 5.1871 6.33962 5.26452 5.81132L6.50323 0.075472H8.51613L7.2 5.88679Z" fill="#FF7F29"/>
<path d="M7.2 5.88679C6.96774 6.86792 6.50323 7.62264 5.80645 8.15094C5.03226 8.67924 4.10323 8.98113 2.94194 8.98113C1.85806 8.98113 1.00645 8.67924 0.541935 8.15094C0.154839 7.77358 0 7.24528 0 6.64151C0 6.41509 0 6.11321 0.0774193 5.81132L2.7871 0H3.17419L1.93548 5.73585C1.93548 5.88679 1.85806 6.03774 1.85806 6.18868C1.85806 6.49057 1.93548 6.71698 2.09032 6.9434C2.32258 7.24528 2.70968 7.39623 3.17419 7.39623C3.71613 7.39623 4.25806 7.24528 4.56774 7.01887C4.95484 6.71698 5.1871 6.33962 5.26452 5.81132L7.97419 0.075472H8.51613L7.2 5.88679Z" fill="#EA2227"/>
<path d="M1.16129 0.150943H2.47742L2.32258 0.90566L2.47742 0.679245C2.94194 0.226415 3.40645 2.87902e-07 4.02581 2.87902e-07C4.56774 2.87902e-07 4.95484 0.150944 5.26452 0.452831C5.49677 0.754718 5.57419 1.20755 5.49677 1.73585L4.8 5.28302H3.40645L4.02581 2.03774C4.10323 1.73585 4.10323 1.43396 3.94839 1.28302C3.87097 1.13207 3.63871 1.0566 3.32903 1.0566C2.94194 1.0566 2.70968 1.13208 2.47742 1.35849C2.24516 1.58491 2.09032 1.88679 2.0129 2.26415L1.39355 5.28302H2.95331e-07L1.16129 0.150943Z" transform="translate(7.81934 3.47168)" fill="#EA2227"/>
<path d="M1.08387 0.150943H2.4L2.24516 0.90566L2.4 0.679245C2.86452 0.226415 3.32903 2.87902e-07 3.94839 2.87902e-07C4.49032 2.87902e-07 4.87742 0.150944 5.1871 0.452831C5.41935 0.754718 5.49677 1.20755 5.41935 1.73585L4.72258 5.28302H3.32903L4.02581 2.03774C4.10323 1.73585 4.10323 1.43396 3.94839 1.28302C3.87097 1.13207 3.63871 1.0566 3.32903 1.0566C2.94193 1.0566 2.70968 1.13208 2.47742 1.35849C2.24516 1.58491 2.09032 1.88679 2.0129 2.26415L1.39355 5.28302H-5.90663e-07L1.08387 0.150943Z" transform="translate(23.0709 3.47168)" fill="#A5002F"/>
<path d="M1.16129 1.88679H2.63226L1.47097 7.09434H0L1.16129 1.88679ZM1.62581 -5.75803e-07H3.09677L2.7871 1.28302H1.31613L1.62581 -5.75803e-07Z" transform="translate(13.9355 1.73584)" fill="#EA2227"/>
<path d="M0.541936 4.98113C0.154839 4.60377 -2.95331e-07 4.15094 -2.95331e-07 3.54717C-2.95331e-07 3.4717 -2.95331e-07 3.32075 -2.95331e-07 3.16981C-2.95331e-07 3.01887 0 2.9434 0.0774193 2.79245C0.232258 1.96226 0.619355 1.28302 1.16129 0.754717C1.70323 0.226415 2.4 2.87902e-07 3.25161 2.87902e-07C3.94839 2.87902e-07 4.4129 0.150943 4.8 0.528301C5.1871 0.90566 5.34193 1.35849 5.34193 2.03774C5.34193 2.11321 5.34193 2.26415 5.34193 2.41509C5.34193 2.56604 5.34194 2.64151 5.26452 2.79245C5.10968 3.62264 4.72258 4.30189 4.18064 4.75472C3.63871 5.20755 2.94194 5.50943 2.09032 5.50943C1.47097 5.50943 0.929033 5.28302 0.541936 4.98113ZM3.32903 3.92453C3.56129 3.62264 3.79355 3.24528 3.87097 2.71698C3.87097 2.64151 3.87097 2.56604 3.94839 2.41509C3.94839 2.33962 3.94839 2.26415 3.94839 2.18868C3.94839 1.88679 3.87097 1.58491 3.71613 1.43396C3.56129 1.28302 3.32903 1.13208 3.01935 1.13208C2.63226 1.13208 2.24516 1.28302 2.0129 1.58491C1.78064 1.88679 1.54839 2.26415 1.47097 2.86792C1.47097 2.9434 1.47097 3.01887 1.39355 3.09434C1.39355 3.16981 1.39355 3.24528 1.39355 3.32075C1.39355 3.62264 1.47097 3.92453 1.62581 4.07547C1.78065 4.22642 2.0129 4.30189 2.32258 4.30189C2.7871 4.30189 3.09677 4.22641 3.32903 3.92453Z" transform="translate(17.342 3.47168)" fill="#EA2227"/>
<path d="M1.70323 0H5.57419C6.34839 0 6.89032 0.150944 7.27742 0.45283C7.66452 0.754717 7.89677 1.20755 7.89677 1.88679C7.89677 2.03774 7.89677 2.11321 7.89677 2.26415C7.89677 2.41509 7.81935 2.56604 7.81935 2.71698C7.66451 3.54717 7.27742 4.15094 6.65806 4.67925C6.03871 5.13208 5.34193 5.43396 4.49032 5.43396H2.4L1.78064 8.45283H0L1.70323 0ZM2.63226 3.92453H4.33548C4.8 3.92453 5.10968 3.84906 5.41935 3.62264C5.65161 3.39623 5.80645 3.09434 5.96129 2.71698C5.96129 2.64151 5.96129 2.56604 5.96129 2.49057C5.96129 2.41509 5.96129 2.33962 5.96129 2.33962C5.96129 2.03774 5.88387 1.81132 5.65161 1.66038C5.41935 1.50943 5.10968 1.43396 4.64516 1.43396H3.17419L2.63226 3.92453Z" transform="translate(29.0322 0.377319)" fill="#1398E2"/>
<path d="M3.25161 0H5.57419C6.34839 0 6.89032 0.150944 7.27742 0.45283C7.66452 0.754717 7.89677 1.20755 7.89677 1.88679C7.89677 2.03774 7.89677 2.11321 7.89677 2.26415C7.89677 2.41509 7.81936 2.56604 7.81936 2.71698C7.66452 3.54717 7.27742 4.15094 6.65806 4.67925C6.03871 5.13208 5.34194 5.43396 4.49032 5.43396H2.4L1.78065 8.45283H1.18133e-06L3.25161 0ZM2.70968 3.92453H4.4129C4.87742 3.92453 5.1871 3.84906 5.49677 3.62264C5.72903 3.39623 5.88387 3.09434 6.03871 2.71698C6.03871 2.64151 6.03871 2.56604 6.03871 2.49057C6.03871 2.41509 6.03871 2.33962 6.03871 2.33962C6.03871 2.03774 5.96129 1.81132 5.72903 1.66038C5.49677 1.50943 5.1871 1.43396 4.72258 1.43396H3.25161L2.70968 3.92453Z" transform="translate(28.9548 0.377319)" fill="#0872B9"/>
<path d="M3.87097 6.18868C3.32903 7.39623 2.7871 8.07547 2.47742 8.37736C2.16774 8.67925 1.54839 9.43396 1.18133e-06 9.35849L0.154838 8.45283C1.39355 8.07547 2.09032 6.33962 2.47742 5.58491L2.0129 -5.75803e-07H3.01935H3.87097L3.94839 3.54717L5.49677 -5.75803e-07H7.04516L3.87097 6.18868Z" transform="translate(40.9548 3.62256)" fill="#055093"/>
<path d="M4.5001 0.12511L3.88074 0.57794C3.26139 0.0496383 2.64203 -0.252248 1.48074 0.276054C-0.0676438 0.955299 -1.38377 6.38926 2.87429 4.57794L3.10655 4.87983L4.80977 4.9553L5.89364 0.0496391L4.5001 0.12511ZM3.49365 2.84209C3.18397 3.59681 2.64203 4.12511 2.17752 3.97417C1.713 3.82322 1.55816 3.06851 1.79042 2.31379C2.1001 1.55907 2.64203 1.03077 3.10655 1.18171C3.64848 1.33266 3.80332 2.08737 3.49365 2.84209Z" transform="translate(35.9902 3.875)" fill="#0872B9"/>
<path d="M5.90663e-07 4.83019C0.309678 4.75472 0.696775 4.67924 1.16129 4.5283L1.39355 4.83019L3.09677 4.90566L4.18064 -5.75803e-07H3.79355C3.01935 1.88679 1.62581 3.54717 5.90663e-07 4.83019Z" transform="translate(37.7032 4.00012)" fill="#055093"/>
<path d="M4.72258 0.528301C4.33548 0.150943 3.79355 2.87902e-07 3.17419 2.87902e-07C3.01935 2.87902e-07 2.94194 2.87902e-07 2.7871 2.87902e-07C2.63226 0.45283 2.4 0.90566 2.16774 1.35849C2.4 1.20755 2.63226 1.13208 2.94193 1.13208C3.25161 1.13208 3.48387 1.20755 3.63871 1.43396C3.79355 1.58491 3.87097 1.88679 3.87097 2.18868C3.87097 2.26415 3.87097 2.33962 3.87097 2.41509C3.87097 2.49057 3.87097 2.56604 3.79355 2.71698C3.71613 3.24528 3.48387 3.69811 3.25161 3.92453C3.01936 4.22641 2.63226 4.30189 2.24516 4.30189C1.93548 4.30189 1.70323 4.22641 1.54839 4.07547C1.39355 3.92453 1.31613 3.62264 1.31613 3.32075C1.31613 3.24528 1.31613 3.16981 1.31613 3.09434C1.31613 3.01887 1.31613 2.9434 1.39355 2.86792C1.39355 2.71698 1.47097 2.64151 1.47097 2.56604C1.08387 3.16981 0.541935 3.77358 0 4.30189C0.0774193 4.60377 0.232258 4.83019 0.464516 5.0566C0.851613 5.43396 1.39355 5.58491 2.0129 5.58491C2.7871 5.58491 3.48387 5.35849 4.10322 4.83019C4.64516 4.37736 5.03226 3.69811 5.1871 2.86792C5.1871 2.71698 5.26451 2.64151 5.26451 2.49057C5.26451 2.33962 5.26451 2.26415 5.26451 2.11321C5.26451 1.35849 5.10968 0.90566 4.72258 0.528301Z" transform="translate(17.4193 3.47168)" fill="#A5002F"/>
</svg>
