<svg width="52" height="16" viewBox="0 0 52 16" fill="none" xmlns="http://www.w3.org/2000/svg">
<path d="M3.14864e-07 15.0785L2.64127 -6.39112e-07H6.76825L4.20952 15.0785H3.14864e-07Z" transform="translate(19.0667 0.502563)" fill="#3C58BF"/>
<path d="M3.14864e-07 15.0785L3.38413 -6.39112e-07H6.76825L4.20952 15.0785H3.14864e-07Z" transform="translate(19.0667 0.502563)" fill="#293688"/>
<path d="M12.6286 0.670157C11.8032 0.335079 10.4825 6.39112e-07 8.83175 6.39112e-07C4.70476 6.39112e-07 1.73333 2.09424 1.73333 5.10995C1.73333 7.37173 3.79682 8.5445 5.44762 9.29843C7.09841 10.0524 7.59365 10.555 7.59365 11.2251C7.59365 12.2304 6.27302 12.733 5.11746 12.733C3.46667 12.733 2.55873 12.4817 1.15556 11.8953L0.577778 11.644L0 15.0785C0.990476 15.4974 2.80635 15.9162 4.70476 15.9162C9.07937 15.9162 11.9683 13.822 11.9683 10.6387C11.9683 8.87958 10.8952 7.53927 8.41905 6.45026C6.93333 5.69634 6.0254 5.27749 6.0254 4.52356C6.0254 3.8534 6.76825 3.18325 8.41905 3.18325C9.82222 3.18325 10.8127 3.43456 11.5556 3.76963L11.9683 3.93717L12.6286 0.670157Z" transform="translate(25.5873)" fill="#3C58BF"/>
<path d="M12.6286 0.670157C11.8032 0.335079 10.4825 6.39112e-07 8.83175 6.39112e-07C4.70476 6.39112e-07 2.47619 2.09424 2.47619 5.10995C2.47619 7.37173 3.79682 8.5445 5.44762 9.29843C7.09841 10.0524 7.59365 10.555 7.59365 11.2251C7.59365 12.2304 6.27302 12.733 5.11746 12.733C3.46667 12.733 2.55873 12.4817 1.15556 11.8953L0.577778 11.644L0 15.0785C0.990476 15.4974 2.80635 15.9162 4.70476 15.9162C9.07937 15.9162 11.9683 13.822 11.9683 10.6387C11.9683 8.87958 10.8952 7.53927 8.41905 6.45026C6.93333 5.69634 6.0254 5.27749 6.0254 4.52356C6.0254 3.8534 6.76825 3.18325 8.41905 3.18325C9.82222 3.18325 10.8127 3.43456 11.5556 3.76963L11.9683 3.93717L12.6286 0.670157Z" transform="translate(25.5873)" fill="#293688"/>
<path d="M8.33651 -6.39112e-07C7.34603 -6.39112e-07 6.60317 0.08377 6.19048 1.08901L-6.29728e-07 15.0785H4.45714L5.28254 12.5654H10.5651L11.0603 15.0785H15.0222L11.5556 -6.39112e-07H8.33651ZM6.43809 10.0524C6.68571 9.29843 8.08889 5.61257 8.08889 5.61257C8.08889 5.61257 8.41905 4.6911 8.66667 4.10471L8.91428 5.5288C8.91428 5.5288 9.73968 9.29843 9.90476 10.1361H6.43809V10.0524Z" transform="translate(36.9778 0.502563)" fill="#3C58BF"/>
<path d="M9.32698 -6.39112e-07C8.33651 -6.39112e-07 7.59365 0.08377 7.18095 1.08901L-6.29728e-07 15.0785H4.45714L5.28254 12.5654H10.5651L11.0603 15.0785H15.0222L11.5556 -6.39112e-07H9.32698ZM6.43809 10.0524C6.76825 9.21466 8.08889 5.61257 8.08889 5.61257C8.08889 5.61257 8.41905 4.6911 8.66667 4.10471L8.91428 5.5288C8.91428 5.5288 9.73968 9.29843 9.90476 10.1361H6.43809V10.0524Z" transform="translate(36.9778 0.502563)" fill="#293688"/>
<path d="M6.19048 10.4712L5.77778 8.29319C5.03492 5.7801 2.64127 3.01571 7.8716e-08 1.67539L3.71429 15.0785H8.17143L14.8571 -3.19556e-07H10.4L6.19048 10.4712Z" transform="translate(5.28259 0.586548)" fill="#3C58BF"/>
<path d="M6.19048 10.4712L5.77778 8.29319C5.03492 5.7801 2.64127 3.01571 7.8716e-08 1.67539L3.71429 15.0785H8.17143L14.8571 -3.19556e-07H11.2254L6.19048 10.4712Z" transform="translate(5.28259 0.586548)" fill="#293688"/>
<path d="M0 -6.39112e-07L0.742857 0.167539C6.0254 1.42408 9.65714 4.60733 11.0603 8.37696L9.5746 1.25654C9.32698 0.251308 8.58413 -6.39112e-07 7.67619 -6.39112e-07H0Z" transform="translate(0 0.502563)" fill="#FFBC00"/>
<path d="M0 -6.39112e-07C5.28254 1.25654 9.65714 4.52356 11.0603 8.29319L9.65714 2.34555C9.40952 1.34031 8.58413 0.753927 7.67619 0.753927L0 -6.39112e-07Z" transform="translate(0 0.502563)" fill="#F7981D"/>
<path d="M0 -6.39112e-07C5.28254 1.25654 9.65714 4.52356 11.0603 8.29319L10.0698 5.02618C9.82222 4.02094 9.49206 3.01571 8.33651 2.59686L0 -6.39112e-07Z" transform="translate(0 0.502563)" fill="#ED7C00"/>
<path d="M10.2349 8.37696L7.42857 5.5288L6.10794 8.71204L5.77778 6.6178C5.03492 4.10471 2.64127 1.34031 0 -6.39112e-07L3.71429 13.4031H8.17143L10.2349 8.37696Z" transform="translate(5.36511 2.17798)" fill="#051244"/>
<path d="M4.20952 3.68586L0.660317 1.27822e-06L3.14864e-07 3.68586H4.20952Z" transform="translate(19.0667 11.8953)" fill="#051244"/>
<path d="M7.18095 -1.27822e-06C7.51111 0.335077 7.67619 0.586388 7.59365 0.921467C7.59365 1.9267 6.27302 2.42932 5.11746 2.42932C3.46667 2.42932 2.55873 2.17801 1.15556 1.59162L0.577778 1.34031L0 4.77487C0.990476 5.19372 2.80635 5.61257 4.70476 5.61257C7.34603 5.61257 9.49206 4.85864 10.7302 3.51832L7.18095 -1.27822e-06Z" transform="translate(25.5873 10.3875)" fill="#051244"/>
<path d="M0 10.9738H3.87937L4.70476 8.46073H9.9873L10.4825 10.9738H14.4444L13.0413 4.85864L8.08889 6.39112e-07L8.33651 1.34031C8.33651 1.34031 9.1619 5.10995 9.32698 5.94764H5.86032C6.19047 5.10995 7.51111 1.50785 7.51111 1.50785C7.51111 1.50785 7.84127 0.586388 8.08889 6.39112e-07" transform="translate(37.5555 4.6073)" fill="#051244"/>
</svg>
