<svg width="46" height="46" viewBox="0 0 46 46" fill="none" xmlns="http://www.w3.org/2000/svg">
<path d="M11.6776 0H33.4837C39.9183 0 45.1613 5.34037 45.1613 11.8945V34.1055C45.1613 40.6596 39.9183 46 33.4837 46H11.6776C5.243 46 0 40.6596 0 34.1055V11.8945C0 5.34037 5.243 0 11.6776 0Z" fill="#5A7DA3"/>
<path d="M4.54556e-07 13.4503C4.54556e-07 10.2339 4.54556e-07 7.01759 4.54556e-07 3.80123C4.54556e-07 2.76957 0.0595791 1.7379 0.0595791 0.706242C0.0595791 0.342126 0.119159 0.0386956 0.595796 0.0386956C4.88552 0.0993817 9.11567 -0.204049 13.4054 0.281439C15.0736 0.463498 16.5035 1.19173 17.6951 2.40545C19.4825 4.95426 19.0059 8.04925 17.7547 9.80914C17.1589 10.6587 16.3248 11.2656 15.3715 11.6904C15.6098 11.9332 15.8482 11.9332 16.0865 12.0545C18.6484 12.9041 20.3166 14.6033 20.4954 17.4556C20.4954 17.6983 20.5549 17.9411 20.6145 18.2445C20.5549 18.8514 20.4954 19.4582 20.3762 20.0044C19.6017 23.2814 17.2781 24.9806 14.2395 25.7696C13.1671 26.073 12.0946 26.1337 10.9626 26.1337C7.5666 26.1337 4.23015 26.1337 0.834114 26.1337C0.178739 26.1337 0.0595791 25.9516 0.0595791 25.3448C0.0595791 21.4609 4.54556e-07 17.4556 4.54556e-07 13.4503ZM6.43459 18.1231C6.43459 19.0334 6.43459 19.9437 6.43459 20.854C6.43459 21.0967 6.37501 21.4609 6.73249 21.4002C8.46029 21.3395 10.1881 21.6429 11.8563 21.0361C13.4054 20.4899 14.0608 19.3368 13.882 17.4556C13.7629 16.1205 12.75 15.2102 11.2605 14.9675C9.83062 14.7854 8.46029 14.9068 7.03039 14.8461C6.55375 14.8461 6.43459 15.0281 6.43459 15.5136C6.49417 16.3632 6.43459 17.2128 6.43459 18.1231ZM6.43459 7.62445C6.43459 8.35268 6.43459 9.08091 6.43459 9.86983C6.43459 10.2339 6.49417 10.416 6.91123 10.416C7.8645 10.416 8.87735 10.4767 9.83062 10.3553C11.3797 10.2339 12.2734 9.20228 12.2734 7.62445C12.333 6.1073 11.4989 5.25769 9.94978 5.01495C8.93693 4.83289 7.92408 4.95426 6.91123 4.89358C6.49417 4.89358 6.37501 5.01495 6.37501 5.43975C6.49417 6.16798 6.43459 6.89622 6.43459 7.62445Z" transform="translate(13.5249 9.12524)" fill="white"/>
</svg>
