<svg width="52" height="20" viewBox="0 0 52 20" fill="none" xmlns="http://www.w3.org/2000/svg">
<path d="M12.6645 19.5781H4.10968L7.99856e-08 -3.21915e-07H6.79355L8.55484 12.0675L10.4 -3.21915e-07H18.2L20.0452 12.4051L21.8903 -3.21915e-07H28.6L24.4903 19.5781H16.1032L14.3419 6.91983" transform="translate(6.20642)" fill="#FFDD12"/>
<path d="M12.6645 19.5781H4.10968L7.99856e-08 -3.21915e-07H6.79355L8.55484 12.0675L10.4 -3.21915e-07H18.2L20.0452 12.4051L21.8903 -3.21915e-07H28.6L24.4903 19.5781H16.1032L14.3419 6.91983" transform="translate(6.20642)" fill="#FFDD12"/>
<path d="M2.06058 17.9747C2.81542 18.6498 3.82188 19.1561 4.99607 19.4937H5.66704L7.42833 6.83544L9.18962 19.4937H17.5767L21.6864 0H14.9767L13.1316 12.3207L11.3703 0H6.67349H3.57026L1.80897 12.0675L0.0476809 0V11.8987C-0.203932 14.5992 0.550907 16.6245 2.06058 17.9747Z" transform="translate(13.204 0.0843506)" fill="#FFC715"/>
<path d="M5.2 19.4937H4.02581L0 -3.21915e-07H1.17419" fill="#FFF315"/>
<path d="M5.2 19.4937H4.10968L3.99928e-08 -3.21915e-07H1.17419" transform="translate(3.10327)" fill="#FFDD12"/>
<path d="M8.72258 -3.21915e-07V12.2363C8.72258 12.9958 8.55484 13.6709 8.21935 14.0928C7.88387 14.5148 7.46452 14.7679 6.96129 14.7679C6.37419 14.7679 5.95484 14.5148 5.61936 14.0928C5.28387 13.6709 5.2 12.9958 5.2 12.1519V-3.21915e-07H3.77419L6.39885e-07 18.0591C0.670968 18.6498 1.50968 19.1561 2.51613 19.4093C3.69032 19.8312 5.2 20 7.04516 20C10.1484 20 12.4968 19.3249 14.0065 18.0591C15.5161 16.7089 16.271 14.6835 16.271 11.8987V-3.21915e-07" transform="translate(31.6194)" fill="black"/>
<path d="M-1.27977e-06 -3.21915e-07V11.8987C-1.27977e-06 13.4177 0.167741 14.5992 0.419354 15.443C0.670967 16.2025 1.09032 16.962 1.67742 17.5527L5.36774 -3.21915e-07" transform="translate(29.4387)" fill="#FFA515"/>
<path d="M-6.39885e-07 0.928269H0.335485L0.419354 1.09705L0.587097 1.18143L0.754839 1.09705L0.838709 1.01266L0.754839 0.928269L0.587097 0.843882C0.419355 0.843882 0.335483 0.759494 0.251612 0.675105L0.167742 0.421942L0.251612 0.253165L0.419354 0.0843875C0.503225 0.0843875 0.587097 6.43831e-07 0.754839 6.43831e-07C0.922581 6.43831e-07 1.00645 -6.47603e-07 1.09032 0.0843875C1.17419 0.168776 1.25806 0.253165 1.25806 0.421942H0.922582L0.838709 0.253165H0.670966H0.587097V0.337553V0.421942L0.754839 0.506328C0.922581 0.506328 1.00645 0.590717 1.09032 0.590717L1.25806 0.759494L1.34194 0.928269L1.00645 1.09705L0.838709 1.26582L0.503227 1.35021C0.251614 1.35021 0.167743 1.26582 0.0838723 1.18143C1.28102e-06 1.09705 -6.39885e-07 1.01266 -6.39885e-07 0.928269Z" transform="translate(49.3162 0.675049)" fill="black"/>
<path d="M-6.39885e-07 6.43831e-07H0.503227L0.754839 0.843882L0.922582 6.43831e-07H1.42581V1.35021H1.09032V0.337553L0.838709 1.35021H0.587097L0.335485 0.337553V1.35021H-6.39885e-07" transform="translate(50.5742 0.675049)" fill="black"/>
<path d="M6.39885e-07 18.0591C0.670968 18.6498 1.50968 19.1561 2.51613 19.4093C3.69032 19.8312 5.2 20 7.04516 20C7.2129 20 7.29677 20 7.38065 20L11.4903 -3.21915e-07H8.72258V12.2363C8.72258 12.9958 8.55484 13.6709 8.21935 14.0928C7.88387 14.5148 7.46452 14.7679 6.96129 14.7679C6.37419 14.7679 5.95484 14.5148 5.61936 14.0928C5.28387 13.6709 5.2 12.9958 5.2 12.1519V-3.21915e-07H4.78065H3.77419L6.39885e-07 18.0591Z" transform="translate(31.6194)" fill="#44423E"/>
</svg>
